<svg viewBox="0 0 100 100" xmlns="http://www.w3.org/2000/svg">
  <rect width="100" height="100" rx="20" fill="#111"/>
  <g>
    <!-- 5x5 Grid perfectly centered -->
    <!-- Each square: 12px, gap: 4px -->
    <!-- Start at (12, 12) -->
    <!-- Row 0 -->
    <rect x="12" y="12" width="12" height="12" rx="2" fill="#2A2A2F"/>
    <rect x="28" y="12" width="12" height="12" rx="2" fill="#2E2E33"/>
    <rect x="44" y="12" width="12" height="12" rx="2" fill="#323237"/>
    <rect x="60" y="12" width="12" height="12" rx="2" fill="#36363B"/>
    <rect x="76" y="12" width="12" height="12" rx="2" fill="#3A3A3F"/>
    <!-- Row 1 -->
    <rect x="12" y="28" width="12" height="12" rx="2" fill="#2E2E33"/>
    <rect x="28" y="28" width="12" height="12" rx="2" fill="#323237"/>
    <rect x="44" y="28" width="12" height="12" rx="2" fill="#36363B"/>
    <rect x="60" y="28" width="12" height="12" rx="2" fill="#3A3A3F"/>
    <rect x="76" y="28" width="12" height="12" rx="2" fill="#3E3E43"/>
    <!-- Row 2 -->
    <rect x="12" y="44" width="12" height="12" rx="2" fill="#323237"/>
    <rect x="28" y="44" width="12" height="12" rx="2" fill="#36363B"/>
    <rect x="44" y="44" width="12" height="12" rx="2" fill="#3A3A3F"/>
    <rect x="60" y="44" width="12" height="12" rx="2" fill="#3E3E43"/>
    <rect x="76" y="44" width="12" height="12" rx="2" fill="#424247"/>
    <!-- Row 3 -->
    <rect x="12" y="60" width="12" height="12" rx="2" fill="#36363B"/>
    <rect x="28" y="60" width="12" height="12" rx="2" fill="#3A3A3F"/>
    <rect x="44" y="60" width="12" height="12" rx="2" fill="#3E3E43"/>
    <rect x="60" y="60" width="12" height="12" rx="2" fill="#424247"/>
    <rect x="76" y="60" width="12" height="12" rx="2" fill="#46464B"/>
    <!-- Row 4 -->
    <rect x="12" y="76" width="12" height="12" rx="2" fill="#3A3A3F"/>
    <rect x="28" y="76" width="12" height="12" rx="2" fill="#3E3E43"/>
    <rect x="44" y="76" width="12" height="12" rx="2" fill="#424247"/>
    <rect x="60" y="76" width="12" height="12" rx="2" fill="#46464B"/>
    <rect x="76" y="76" width="12" height="12" rx="2" fill="#4A4A4F"/>
  </g>
</svg>
