<svg xmlns="http://www.w3.org/2000/svg"  width="1em" height="1em" viewBox="0 0 1024 1024" fill="currentColor">
<path opacity="1.000000" stroke="none" 
	d="
M685.000000,1025.000000 
	C456.666656,1025.000000 228.833328,1025.000000 1.000000,1025.000000 
	C1.000000,683.666687 1.000000,342.333344 1.000000,1.000000 
	C342.333344,1.000000 683.666687,1.000000 1025.000000,1.000000 
	C1025.000000,342.333344 1025.000000,683.666687 1025.000000,1025.000000 
	C911.833313,1025.000000 798.666687,1025.000000 685.000000,1025.000000 
M131.182007,590.500000 
	C131.006851,628.330627 131.442291,666.177429 130.441788,703.986206 
	C129.775238,729.175232 127.815117,754.284241 135.310303,778.840515 
	C138.795456,790.258789 141.697479,802.001221 146.599976,812.809265 
	C155.935120,833.389282 171.116745,849.544189 189.197235,862.839233 
	C204.309509,873.951477 220.745667,882.513794 239.464462,885.903931 
	C243.057434,886.554626 246.700272,886.924927 250.310623,887.485596 
	C257.354736,888.579468 264.378326,890.584900 271.434570,890.697510 
	C324.757935,891.548706 378.086487,892.452637 431.414734,892.540222 
	C534.910339,892.710205 638.407043,892.451416 741.902771,892.154968 
	C768.449463,892.078918 793.916687,887.171265 818.032288,875.082520 
	C859.705261,854.192322 882.781372,819.563904 892.748840,775.413147 
	C897.858521,752.779541 898.588440,729.518860 898.338501,706.311096 
	C898.142822,688.146606 897.728271,669.981934 897.758606,651.817932 
	C897.917297,556.654907 898.339722,461.492035 898.330322,366.329132 
	C898.327271,335.179993 897.941650,303.999878 896.431885,272.897003 
	C895.819458,260.282684 892.820679,247.487961 888.926270,235.414474 
	C885.198730,223.858154 879.186218,212.986664 873.667542,202.072220 
	C864.851868,184.637054 850.285828,172.319946 834.873901,161.195847 
	C821.213867,151.336273 805.928589,144.800766 789.372375,140.662018 
	C771.690247,136.241806 754.158875,132.833038 735.778809,133.288727 
	C694.632202,134.308838 653.469238,135.099518 612.311707,135.159561 
	C501.480438,135.321243 390.648499,135.078201 279.816925,134.931808 
	C254.870560,134.898865 231.342911,140.100327 208.871613,151.313629 
	C189.211029,161.124359 172.961975,174.672180 159.893936,192.024048 
	C139.208160,219.490784 130.659760,250.967056 130.702026,285.004974 
	C130.828064,386.503357 131.018448,488.001678 131.182007,590.500000 
z"/>
<path fill="#1C2029" opacity="1.000000" stroke="none" 
	d="
M131.182861,590.000000 
	C131.018448,488.001678 130.828064,386.503357 130.702026,285.004974 
	C130.659760,250.967056 139.208160,219.490784 159.893936,192.024048 
	C172.961975,174.672180 189.211029,161.124359 208.871613,151.313629 
	C231.342911,140.100327 254.870560,134.898865 279.816925,134.931808 
	C390.648499,135.078201 501.480438,135.321243 612.311707,135.159561 
	C653.469238,135.099518 694.632202,134.308838 735.778809,133.288727 
	C754.158875,132.833038 771.690247,136.241806 789.372375,140.662018 
	C805.928589,144.800766 821.213867,151.336273 834.873901,161.195847 
	C850.285828,172.319946 864.851868,184.637054 873.667542,202.072220 
	C879.186218,212.986664 885.198730,223.858154 888.926270,235.414474 
	C892.820679,247.487961 895.819458,260.282684 896.431885,272.897003 
	C897.941650,303.999878 898.327271,335.179993 898.330322,366.329132 
	C898.339722,461.492035 897.917297,556.654907 897.758606,651.817932 
	C897.728271,669.981934 898.142822,688.146606 898.338501,706.311096 
	C898.588440,729.518860 897.858521,752.779541 892.748840,775.413147 
	C882.781372,819.563904 859.705261,854.192322 818.032288,875.082520 
	C793.916687,887.171265 768.449463,892.078918 741.902771,892.154968 
	C638.407043,892.451416 534.910339,892.710205 431.414734,892.540222 
	C378.086487,892.452637 324.757935,891.548706 271.434570,890.697510 
	C264.378326,890.584900 257.354736,888.579468 250.310623,887.485596 
	C246.700272,886.924927 243.057434,886.554626 239.464462,885.903931 
	C220.745667,882.513794 204.309509,873.951477 189.197235,862.839233 
	C171.116745,849.544189 155.935120,833.389282 146.599976,812.809265 
	C141.697479,802.001221 138.795456,790.258789 135.310303,778.840515 
	C127.815117,754.284241 129.775238,729.175232 130.441788,703.986206 
	C131.442291,666.177429 131.006851,628.330627 131.182861,590.000000 
M473.252808,710.405640 
	C473.832458,710.307922 474.412079,710.210144 475.025726,709.951599 
	C475.025726,709.951599 475.057709,709.790466 475.979919,709.893982 
	C533.975891,709.911804 591.971802,709.948425 649.967773,709.941284 
	C692.963440,709.936035 735.959167,709.873840 778.987000,710.001526 
	C778.987000,710.001526 779.025146,710.164856 779.435730,710.610657 
	C780.284912,710.380737 781.134155,710.150818 781.997498,709.989563 
	C781.997498,709.989563 781.937195,709.953796 782.589294,709.930481 
	C783.050964,709.536194 783.512634,709.141907 784.397034,708.251343 
	C793.338440,699.735657 791.717102,688.982117 780.558960,684.949036 
	C780.297607,684.857544 780.109314,684.685913 779.565063,683.658569 
	C777.950378,683.441956 776.335754,683.036194 774.721008,683.035706 
	C676.134033,683.005493 577.547119,683.001953 478.960175,683.063477 
	C477.308289,683.064514 475.656952,683.892334 473.653015,684.724243 
	C473.156769,684.888672 472.660522,685.053101 471.508911,685.369141 
	C469.102692,687.924194 466.696472,690.479187 463.744781,693.210266 
	C463.805573,693.790833 463.866364,694.371460 463.976990,695.773254 
	C463.953644,696.869080 463.930328,697.964844 463.463196,699.368896 
	C463.712036,699.905701 463.960846,700.442444 464.633575,701.348633 
	C464.757355,701.889526 464.881104,702.430481 465.061554,703.605530 
	C465.439362,704.064636 465.817200,704.523743 466.744446,705.290039 
	C468.163574,706.508972 469.582703,707.727966 471.325348,709.472534 
	C471.905029,709.637024 472.484711,709.801575 473.001221,709.989258 
	C473.001221,709.989258 473.011475,709.922791 473.252808,710.405640 
M470.511108,357.969330 
	C470.511108,357.969330 470.069641,358.123383 469.426727,358.342834 
	C461.827118,365.320099 462.103973,374.041260 470.533997,379.975220 
	C470.533997,379.975220 470.986786,380.064362 470.998962,380.003754 
	C470.998962,380.003754 470.941498,380.026581 471.252075,380.466614 
	C471.837524,380.850098 472.423004,381.233612 473.457428,382.351013 
	C475.070923,382.567719 476.684326,382.973206 478.297913,382.973938 
	C545.185059,383.004517 612.072144,383.007507 678.959229,382.947479 
	C680.642395,382.945953 682.324890,382.199097 684.444824,381.309296 
	C686.667664,379.452179 689.494507,377.986847 691.000488,375.664856 
	C695.591736,368.585724 693.177368,362.207886 683.772705,355.614014 
	C682.853210,355.702240 681.933655,355.790497 680.988037,356.033508 
	C680.988037,356.033508 680.957886,356.187500 680.032593,356.091797 
	C673.216125,356.080353 666.399597,356.056183 659.583130,356.059509 
	C598.400818,356.089355 537.218506,356.124023 476.008362,356.009155 
	C476.008362,356.009155 475.983215,355.860535 475.659088,355.446960 
	C475.105316,355.630707 474.551575,355.814453 473.959045,356.324585 
	C473.959045,356.324585 473.967926,356.653107 473.302094,356.830139 
	C472.512817,357.207001 471.723541,357.583862 471.000397,357.983978 
	C471.000397,357.983978 470.975891,357.918304 470.511108,357.969330 
M470.518524,551.986877 
	C470.518524,551.986877 470.081329,552.145081 469.438568,552.360657 
	C461.965820,559.134827 462.052307,567.768921 470.000427,573.514832 
	C470.329651,573.696594 470.658905,573.878296 470.991425,573.998840 
	C470.991425,573.998840 470.940796,574.033386 471.251740,574.458313 
	C471.835754,574.835999 472.419739,575.213684 473.434418,576.365112 
	C474.718750,576.575073 476.003021,576.968201 477.287445,576.968750 
	C544.731445,576.999329 612.175415,577.005676 679.619324,576.937256 
	C681.078857,576.935791 682.537415,576.036621 684.380737,575.195801 
	C684.941467,574.809631 685.502197,574.423462 686.010498,574.000183 
	C686.010498,574.000183 686.015076,574.064270 686.552551,573.865723 
	C686.825195,573.598877 687.097778,573.332092 688.027832,572.927979 
	C696.207397,565.667847 694.538818,556.290100 683.530945,549.572266 
	C682.406372,549.381897 681.281921,549.025269 680.157288,549.024841 
	C612.271606,548.998718 544.385986,548.998291 476.500336,549.044983 
	C475.675049,549.045532 474.850250,549.687073 473.990814,550.395142 
	C473.990814,550.395142 473.982025,550.762390 473.306030,550.880188 
	C472.515533,551.241455 471.725037,551.602722 470.999207,551.987183 
	C470.999207,551.987183 470.978882,551.921570 470.518524,551.986877 
M780.419678,515.555786 
	C781.264221,515.071655 782.108765,514.587524 783.521484,513.716309 
	C792.969849,505.519165 792.258179,495.168274 781.557434,489.941010 
	C781.294739,489.830963 781.108521,489.644531 780.550476,488.622772 
	C771.601440,488.417450 762.652466,488.037994 753.703369,488.033630 
	C662.252808,487.989044 570.802185,487.995453 479.351654,488.067139 
	C477.235626,488.068787 475.120361,488.998596 472.770935,489.793427 
	C472.553711,489.921417 472.337067,490.050293 471.466766,490.353088 
	C461.709778,496.789612 461.333405,507.737213 471.042572,513.487366 
	C471.378601,513.643066 471.714630,513.798767 472.063904,514.289551 
	C472.063904,514.289551 472.031982,514.623352 472.385437,515.359070 
	C474.937622,515.906067 477.486359,516.907471 480.042572,516.927002 
	C498.032196,517.064636 516.023376,517.000183 534.014038,517.000183 
	C613.472900,517.000183 692.931702,517.011841 772.390503,516.927368 
	C774.247070,516.925415 776.102478,515.841431 778.633911,515.071228 
	C779.100586,515.067505 779.567200,515.063782 780.419678,515.555786 
M683.405518,770.072021 
	C683.570312,770.005371 683.735107,769.938721 684.587280,769.736511 
	C690.401062,767.457825 693.119385,762.973206 692.954773,756.958069 
	C692.792297,751.022583 689.338501,747.222412 683.556274,744.984558 
	C683.306152,744.910400 683.115295,744.760681 682.587891,743.733521 
	C681.317688,743.489075 680.047668,743.031494 678.777344,743.030823 
	C611.965393,742.996277 545.153503,742.990845 478.341644,743.063477 
	C476.899078,743.065063 475.457550,744.008301 473.780975,744.804932 
	C473.565125,744.930420 473.345154,745.048096 472.432556,745.288147 
	C466.804565,747.414673 463.966431,751.690796 464.083740,757.500671 
	C464.204742,763.491333 467.371796,767.727600 473.458313,769.994263 
	C473.709137,770.070862 473.900482,770.222473 474.413574,771.256653 
	C475.679779,771.504883 476.945892,771.969666 478.212250,771.970337 
	C545.093323,772.005798 611.974365,772.012146 678.855408,771.931335 
	C680.211670,771.929688 681.566589,770.865784 683.405518,770.072021 
M783.512451,319.581146 
	C788.648987,316.325226 790.856201,311.649200 789.929077,305.666809 
	C789.116943,300.426544 785.401123,297.486511 780.496521,294.512115 
	C779.030823,294.341400 777.565186,294.021576 776.099426,294.021271 
	C676.742249,293.998810 577.385071,293.996063 478.027954,294.053558 
	C476.349457,294.054535 474.671387,294.812103 472.543854,295.694550 
	C461.990082,301.175812 460.837677,311.944855 470.506104,319.054932 
	C470.506104,319.054932 470.960938,319.208221 471.297485,319.647339 
	C471.816498,319.825378 472.335541,320.003418 473.484039,320.689758 
	C475.967285,320.762482 478.450562,320.835205 481.876526,320.986389 
	C529.157715,320.996094 576.438965,321.023193 623.720154,321.010864 
	C674.829529,320.997528 725.938904,320.947357 777.678894,320.968689 
	C778.099548,320.944061 778.520142,320.919464 779.521912,320.932861 
	C780.025085,320.692841 780.528259,320.452820 781.651489,320.088745 
	C782.057007,319.978882 782.462585,319.868988 783.512451,319.581146 
M268.237946,449.025391 
	C266.293854,449.382019 264.321167,449.626434 262.410126,450.112915 
	C246.091248,454.266907 232.758057,470.110748 232.037872,487.004517 
	C232.056000,523.304688 232.074127,559.604797 232.118332,596.685181 
	C233.689804,601.210999 234.577866,606.137329 236.954025,610.191467 
	C246.041321,625.696289 259.979858,633.011963 277.874756,633.004211 
	C310.341461,632.990234 342.808258,633.030334 375.274750,632.951599 
	C379.063629,632.942444 382.896698,632.589661 386.631409,631.945068 
	C405.068329,628.763123 420.838806,610.284912 420.971222,591.014526 
	C420.957977,557.033752 420.944733,523.052979 420.969879,488.236206 
	C420.634888,486.115082 420.354492,483.983643 419.956299,481.874451 
	C416.673462,464.486908 398.383667,449.116272 380.013916,449.021057 
	C343.030304,449.033844 306.046661,449.046661 268.237946,449.025391 
M383.722595,827.950500 
	C405.603760,824.357910 418.875824,808.303467 420.954041,788.985535 
	C420.942383,753.351746 420.930725,717.717896 420.945648,681.280823 
	C417.608398,657.884277 396.492798,643.386108 374.654419,643.828247 
	C342.178040,644.485840 309.678467,643.987610 277.188782,644.004028 
	C253.118057,644.016235 237.332153,656.666138 232.040222,681.009033 
	C232.061935,717.970520 232.083664,754.932068 232.128662,792.672180 
	C236.539825,814.568909 253.204865,826.060181 270.009705,827.961121 
	C307.646149,827.948059 345.282593,827.934998 383.722595,827.950500 
M269.264008,253.905914 
	C250.392609,255.590805 234.505188,271.473480 232.032364,291.999817 
	C232.050949,328.302948 232.069534,364.606079 232.059708,401.711914 
	C233.073990,405.203888 233.587891,408.945770 235.186371,412.145935 
	C243.537460,428.864563 257.576111,437.511047 275.922546,437.828552 
	C306.887939,438.364410 337.869324,438.031281 368.843658,437.945068 
	C374.301270,437.929871 379.787567,437.595398 385.208496,436.962219 
	C403.122803,434.869629 420.828156,414.916321 420.967316,396.009735 
	C420.956482,361.696167 420.945679,327.382629 420.971832,292.233978 
	C419.007416,276.363678 411.185059,264.546722 396.501068,257.847778 
	C391.907043,255.751953 386.849457,254.672195 381.459259,252.472580 
	C380.821350,252.319763 380.183502,252.033676 379.545502,252.033234 
	C344.227020,252.008713 308.908508,251.990982 273.590240,252.080399 
	C272.425842,252.083344 271.264252,253.199081 269.264008,253.905914 
z"/>
<path fill="#373E4B" opacity="1.000000" stroke="none" 
	d="
M420.934845,396.932648 
	C420.828156,414.916321 403.122803,434.869629 385.208496,436.962219 
	C379.787567,437.595398 374.301270,437.929871 368.843658,437.945068 
	C337.869324,438.031281 306.887939,438.364410 275.922546,437.828552 
	C257.576111,437.511047 243.537460,428.864563 235.186371,412.145935 
	C233.587891,408.945770 233.073990,405.203888 232.356064,401.020996 
	C232.766327,399.683014 232.979599,399.035980 232.979935,398.388855 
	C232.997299,363.852509 233.006241,329.316193 232.959274,294.779907 
	C232.957611,293.546173 232.385284,292.313202 232.078918,291.079895 
	C234.505188,271.473480 250.392609,255.590805 270.102966,253.886841 
	C307.962616,253.620972 344.983337,253.374161 382.004059,253.127350 
	C386.849457,254.672195 391.907043,255.751953 396.501068,257.847778 
	C411.185059,264.546722 419.007416,276.363678 420.666504,292.941162 
	C420.243103,294.294342 420.022034,294.940338 420.021667,295.586426 
	C420.003448,328.136536 419.993835,360.686646 420.041962,393.236694 
	C420.043793,394.469116 420.624084,395.700684 420.934845,396.932648 
M383.509735,273.403137 
	C382.367676,273.259186 381.225647,272.989441 380.083588,272.989471 
	C343.404205,272.990265 306.724792,273.017151 269.286560,273.026398 
	C257.035858,276.394318 250.967911,284.252808 250.965515,296.804810 
	C250.959351,329.101593 251.397430,361.406952 250.756088,393.690979 
	C250.494858,406.840820 261.352020,418.909790 275.908691,418.944092 
	C309.703583,419.023651 343.499298,419.073669 377.293640,418.914062 
	C390.612213,418.851166 401.834991,408.333313 401.915344,395.643372 
	C402.129333,361.849640 402.103333,328.053131 401.930908,294.258942 
	C401.878143,283.914948 393.491852,274.788574 383.509735,273.403137 
z"/>
<path fill="#373E4B" opacity="1.000000" stroke="none" 
	d="
M232.092209,680.091553 
	C237.332153,656.666138 253.118057,644.016235 277.188782,644.004028 
	C309.678467,643.987610 342.178040,644.485840 374.654419,643.828247 
	C396.492798,643.386108 417.608398,657.884277 420.649048,681.972290 
	C420.236145,683.476257 420.018616,684.288696 420.018188,685.101318 
	C420.000854,718.798645 419.993469,752.496033 420.040558,786.193298 
	C420.042267,787.429749 420.601227,788.665405 420.900513,789.901428 
	C418.875824,808.303467 405.603760,824.357910 383.031769,827.651123 
	C381.694305,827.236450 381.047729,827.020386 380.401031,827.020081 
	C344.533600,827.002258 308.666199,826.993530 272.798828,827.039185 
	C271.563019,827.040710 270.327972,827.605042 269.092560,827.907043 
	C253.204865,826.060181 236.539825,814.568909 232.396149,791.993530 
	C232.773926,790.667175 232.980484,790.019592 232.980789,789.371826 
	C232.997253,754.179810 233.005585,718.987854 232.959198,683.795898 
	C232.957565,682.560730 232.393921,681.326294 232.092209,680.091553 
M250.968521,737.500000 
	C250.972290,753.490906 250.952499,769.481812 250.987045,785.472656 
	C251.016281,798.993774 261.112793,809.003479 274.742126,809.010986 
	C309.055939,809.030090 343.369720,809.022522 377.683533,809.012573 
	C391.809967,809.008545 401.972168,798.998108 401.991486,784.924316 
	C402.036469,752.109741 402.029205,719.294983 401.994904,686.480347 
	C401.981476,673.636597 391.837738,663.092651 379.082245,663.048828 
	C343.936005,662.928223 308.788635,662.903687 273.642670,663.060303 
	C260.837341,663.117371 250.997101,673.358826 250.973755,686.028687 
	C250.942749,702.852417 250.967834,719.676208 250.968521,737.500000 
z"/>
<path fill="#373E4B" opacity="1.000000" stroke="none" 
	d="
M232.085571,486.085754 
	C232.758057,470.110748 246.091248,454.266907 262.410126,450.112915 
	C264.321167,449.626434 266.293854,449.382019 268.940033,449.330811 
	C270.288086,449.755524 270.934021,449.978851 271.580048,449.979187 
	C306.800964,449.997406 342.021881,450.006439 377.242737,449.958893 
	C378.474823,449.957214 379.706085,449.372864 380.937714,449.060120 
	C398.383667,449.116272 416.673462,464.486908 419.956299,481.874451 
	C420.354492,483.983643 420.634888,486.115082 420.664429,488.943726 
	C420.241821,490.297516 420.022461,490.943756 420.022095,491.590088 
	C420.003815,523.808533 419.993896,556.026978 420.042267,588.245361 
	C420.044128,589.476990 420.628052,590.707642 420.940735,591.938782 
	C420.838806,610.284912 405.068329,628.763123 386.631409,631.945068 
	C382.896698,632.589661 379.063629,632.942444 375.274750,632.951599 
	C342.808258,633.030334 310.341461,632.990234 277.874756,633.004211 
	C259.979858,633.011963 246.041321,625.696289 236.954025,610.191467 
	C234.577866,606.137329 233.689804,601.210999 232.386353,596.005432 
	C232.767090,594.678528 232.978104,594.031372 232.978424,593.384155 
	C232.995605,558.852600 233.004440,524.321106 232.957901,489.789612 
	C232.956238,488.554596 232.389145,487.320343 232.085571,486.085754 
M269.515808,467.639069 
	C257.383972,470.521790 250.665009,480.097076 250.836166,493.458282 
	C251.250168,525.776245 250.949493,558.103088 250.983765,590.426392 
	C250.997070,602.976318 261.924316,613.956665 274.560944,613.980469 
	C309.050079,614.045410 343.539520,614.037720 378.028687,613.985413 
	C390.957977,613.965820 401.955109,603.055847 401.977600,590.209167 
	C402.035645,557.052917 402.010468,523.896545 401.983704,490.740204 
	C401.978790,484.657928 400.138580,478.979553 395.441681,475.154907 
	C391.436432,471.893372 386.516632,469.754944 381.457031,466.466095 
	C380.818787,466.314697 380.180634,466.031219 379.542297,466.030762 
	C344.228058,466.006104 308.913788,465.993988 273.599640,466.049347 
	C272.399017,466.051239 271.199524,466.754883 269.515808,467.639069 
z"/>
<path fill="#4C5664" opacity="1.000000" stroke="none" 
	d="
M777.048279,320.913239 
	C725.938904,320.947357 674.829529,320.997528 623.720154,321.010864 
	C576.438965,321.023193 529.157715,320.996094 481.154083,320.682495 
	C477.905945,320.312927 475.380249,320.247192 472.854553,320.181488 
	C472.335541,320.003418 471.816498,319.825378 471.090942,319.234558 
	C470.610931,318.837158 470.337494,318.852478 470.064056,318.867828 
	C460.837677,311.944855 461.990082,301.175812 473.173157,295.384094 
	C474.889099,295.078979 475.975708,295.084320 477.357117,295.374664 
	C478.966827,295.773102 480.281738,295.985626 481.596680,295.985840 
	C578.135193,296.000885 674.673767,296.003387 771.212280,295.961304 
	C772.785278,295.960632 774.358032,295.399841 776.350830,295.037048 
	C778.183838,295.051270 779.596863,295.128906 781.009888,295.206512 
	C785.401123,297.486511 789.116943,300.426544 789.929077,305.666809 
	C790.856201,311.649200 788.648987,316.325226 783.024902,319.476929 
	C782.035339,319.652710 781.533386,319.932739 781.031433,320.212769 
	C780.528259,320.452820 780.025085,320.692841 779.095154,320.702820 
	C778.128357,320.619629 777.588318,320.766449 777.048279,320.913239 
z"/>
<path fill="#4C5663" opacity="1.000000" stroke="none" 
	d="
M780.909485,685.120483 
	C791.717102,688.982117 793.338440,699.735657 783.890503,708.593140 
	C782.901794,709.274597 782.419495,709.614197 781.937195,709.953796 
	C781.937195,709.953796 781.997498,709.989563 781.618164,709.949951 
	C780.500916,709.995117 779.763000,710.080017 779.025146,710.164917 
	C779.025146,710.164856 778.987000,710.001526 778.659180,709.656433 
	C777.014160,709.208130 775.696899,709.014832 774.379639,709.014648 
	C676.199524,709.000061 578.019348,708.996887 479.839233,709.032898 
	C478.245300,709.033447 476.651550,709.526978 475.057709,709.790466 
	C475.057709,709.790466 475.025726,709.951599 474.681152,709.978394 
	C473.894867,709.977661 473.453186,709.950195 473.011475,709.922791 
	C473.011475,709.922791 473.001221,709.989258 472.843872,709.746582 
	C472.124939,709.318237 471.563385,709.132568 471.001831,708.946899 
	C469.582703,707.727966 468.163574,706.508972 466.377075,704.850586 
	C465.674774,703.931213 465.339813,703.451294 465.004852,702.971375 
	C464.881104,702.430481 464.757355,701.889526 464.365265,700.844604 
	C464.033630,699.913940 463.970306,699.487305 463.906982,699.060669 
	C463.930328,697.964844 463.953644,696.869080 464.012695,695.043457 
	C464.129028,693.887146 464.209625,693.460693 464.290222,693.034180 
	C466.696472,690.479187 469.102692,687.924194 472.135498,685.551758 
	C473.917175,685.823059 475.072205,685.989258 476.227264,685.989380 
	C576.211365,686.001221 676.195496,686.004272 776.179565,685.963623 
	C777.756348,685.962952 779.332825,685.413757 780.909485,685.120483 
z"/>
<path fill="#4C5663" opacity="1.000000" stroke="none" 
	d="
M472.031982,514.623352 
	C472.031982,514.623352 472.063904,514.289551 472.199158,513.941467 
	C471.785095,513.411987 471.235779,513.230591 470.686462,513.049194 
	C461.333405,507.737213 461.709778,496.789612 472.093506,490.531403 
	C474.040314,490.806946 475.360321,490.989166 476.680359,490.989319 
	C576.838257,491.002502 676.996155,491.005219 777.154053,490.965942 
	C778.736572,490.965302 780.318909,490.434845 781.901306,490.151672 
	C792.258179,495.168274 792.969849,505.519165 783.224670,513.823608 
	C782.927856,513.930908 782.966797,513.761963 782.786133,513.577881 
	C782.074829,513.626953 781.544250,513.860168 781.039185,514.064819 
	C781.064758,514.036316 781.119324,514.089966 780.643860,514.063416 
	C679.850952,514.024048 579.533508,514.007263 479.216034,514.038574 
	C477.819641,514.039001 476.423431,514.644287 474.648865,514.991638 
	C473.524414,514.885193 472.778198,514.754272 472.031982,514.623352 
z"/>
<path fill="#4C5664" opacity="1.000000" stroke="none" 
	d="
M684.163147,356.140137 
	C693.177368,362.207886 695.591736,368.585724 691.000488,375.664856 
	C689.494507,377.986847 686.667664,379.452179 683.759644,381.624634 
	C636.827576,381.979004 590.580750,382.042816 544.333862,382.046204 
	C522.211304,382.047821 500.088776,381.934814 477.885651,381.502136 
	C475.517212,380.762543 473.229370,380.394562 470.941498,380.026550 
	C470.941498,380.026581 470.998962,380.003754 470.939270,379.864532 
	C470.622345,379.749603 470.365082,379.773895 470.107849,379.798218 
	C462.103973,374.041260 461.827118,365.320099 469.844543,358.386353 
	C470.500183,358.259369 470.738037,358.088837 470.975891,357.918335 
	C470.975891,357.918304 471.000397,357.983978 471.333740,357.982361 
	C472.434052,357.538239 473.200989,357.095673 473.967926,356.653107 
	C473.967926,356.653107 473.959045,356.324585 474.310425,356.154938 
	C475.102295,355.943726 475.542755,355.902130 475.983215,355.860535 
	C475.983215,355.860535 476.008362,356.009155 476.334351,356.346985 
	C477.643585,356.790863 478.626831,356.989624 479.610107,356.989838 
	C545.302368,357.003845 610.994690,357.006989 676.686951,356.967316 
	C678.110718,356.966431 679.534241,356.458740 680.957886,356.187500 
	C680.957886,356.187500 680.988037,356.033508 681.390747,356.004211 
	C682.583374,356.029968 683.373291,356.085052 684.163147,356.140137 
z"/>
<path fill="#4C5664" opacity="1.000000" stroke="none" 
	d="
M684.003113,550.308472 
	C694.538818,556.290100 696.207397,565.667847 687.401855,573.058289 
	C686.522339,573.480469 686.268677,573.772400 686.015076,574.064270 
	C686.015076,574.064270 686.010498,574.000183 685.562500,574.003906 
	C613.723206,574.016296 542.332031,574.024841 470.940796,574.033386 
	C470.940796,574.033386 470.991425,573.998840 470.852020,573.767578 
	C470.357056,573.379028 470.001495,573.221802 469.645966,573.064514 
	C462.052307,567.768921 461.965820,559.134827 469.857483,552.402222 
	C470.510590,552.269653 470.744720,552.095581 470.978882,551.921570 
	C470.978882,551.921570 470.999207,551.987183 471.327515,551.985779 
	C472.431244,551.577087 473.206635,551.169739 473.982025,550.762390 
	C473.982025,550.762390 473.990814,550.395142 474.474060,550.186523 
	C503.385712,549.964783 531.814148,549.927734 560.242554,549.945557 
	C585.509827,549.961365 610.777039,550.038025 636.180054,550.303589 
	C636.862122,550.376404 637.408447,550.233337 638.423096,550.031616 
	C653.928711,550.084717 668.965881,550.196594 684.003113,550.308472 
z"/>
<path fill="#4C5663" opacity="1.000000" stroke="none" 
	d="
M683.891418,745.141846 
	C689.338501,747.222412 692.792297,751.022583 692.954773,756.958069 
	C693.119385,762.973206 690.401062,767.457825 683.949829,769.527161 
	C682.327576,769.211792 681.342651,769.013245 680.357788,769.013062 
	C612.697205,768.998474 545.036682,768.994751 477.376160,769.034607 
	C475.958282,769.035461 474.540741,769.554810 473.123047,769.832275 
	C467.371796,767.727600 464.204742,763.491333 464.083740,757.500671 
	C463.966431,751.690796 466.804565,747.414673 473.072327,745.493896 
	C474.698303,745.799805 475.684448,745.987549 476.670654,745.987793 
	C544.330811,746.001587 611.990906,746.005493 679.651062,745.964478 
	C681.064636,745.963623 682.477966,745.427979 683.891418,745.141846 
z"/>
<path fill="#566071" opacity="1.000000" stroke="none" 
	d="
M781.729370,490.046326 
	C780.318909,490.434845 778.736572,490.965302 777.154053,490.965942 
	C676.996155,491.005219 576.838257,491.002502 476.680359,490.989319 
	C475.360321,490.989166 474.040314,490.806946 472.420593,490.444885 
	C472.337067,490.050293 472.553711,489.921417 473.346619,489.521332 
	C475.417206,489.187439 476.912048,489.071655 478.406921,489.071533 
	C577.446533,489.063660 676.486206,489.063416 775.525818,489.078949 
	C777.350159,489.079224 779.174500,489.276428 780.998840,489.381744 
	C781.108521,489.644531 781.294739,489.830963 781.729370,490.046326 
z"/>
<path fill="#5A6676" opacity="1.000000" stroke="none" 
	d="
M780.734253,685.034790 
	C779.332825,685.413757 777.756348,685.962952 776.179565,685.963623 
	C676.195496,686.004272 576.211365,686.001221 476.227264,685.989380 
	C475.072205,685.989258 473.917175,685.823059 472.463196,685.475952 
	C472.660522,685.053101 473.156769,684.888672 474.295074,684.461548 
	C475.601990,684.169067 476.266815,684.113281 476.931671,684.113342 
	C576.295288,684.118042 675.658875,684.125305 775.022461,684.147766 
	C776.679688,684.148132 778.336914,684.334534 779.994141,684.434143 
	C780.109314,684.685913 780.297607,684.857544 780.734253,685.034790 
z"/>
<path fill="#0E1018" opacity="1.000000" stroke="none" 
	d="
M472.208710,514.991211 
	C472.778198,514.754272 473.524414,514.885193 475.112732,515.042725 
	C528.868713,515.085266 581.782593,515.087952 634.696472,515.120911 
	C682.450439,515.150696 730.204468,515.213684 777.958435,515.262085 
	C776.102478,515.841431 774.247070,516.925415 772.390503,516.927368 
	C692.931702,517.011841 613.472900,517.000183 534.014038,517.000183 
	C516.023376,517.000183 498.032196,517.064636 480.042572,516.927002 
	C477.486359,516.907471 474.937622,515.906067 472.208710,514.991211 
z"/>
<path fill="#566071" opacity="1.000000" stroke="none" 
	d="
M471.096252,574.245850 
	C542.332031,574.024841 613.723206,574.016296 685.588684,574.022522 
	C685.502197,574.423462 684.941467,574.809631 683.729614,575.499329 
	C681.917480,575.867432 680.756348,575.988403 679.595276,575.988647 
	C612.383484,575.999451 545.171692,576.003113 477.959900,575.984741 
	C476.307800,575.984314 474.655792,575.728271 473.003723,575.591370 
	C472.419739,575.213684 471.835754,574.835999 471.096252,574.245850 
z"/>
<path fill="#5A6676" opacity="1.000000" stroke="none" 
	d="
M683.723877,745.063232 
	C682.477966,745.427979 681.064636,745.963623 679.651062,745.964478 
	C611.990906,746.005493 544.330811,746.001587 476.670654,745.987793 
	C475.684448,745.987549 474.698303,745.799805 473.416565,745.428833 
	C473.345154,745.048096 473.565125,744.930420 474.360413,744.560242 
	C475.769867,744.270020 476.599884,744.184875 477.429901,744.184753 
	C544.626892,744.174927 611.823914,744.169617 679.020935,744.183411 
	C680.341858,744.183655 681.662781,744.412964 682.983704,744.535339 
	C683.115295,744.760681 683.306152,744.910400 683.723877,745.063232 
z"/>
<path fill="#5A6676" opacity="1.000000" stroke="none" 
	d="
M473.290680,769.913269 
	C474.540741,769.554810 475.958282,769.035461 477.376160,769.034607 
	C545.036682,768.994751 612.697205,768.998474 680.357788,769.013062 
	C681.342651,769.013245 682.327576,769.211792 683.606201,769.594971 
	C683.735107,769.938721 683.570312,770.005371 682.754822,770.157532 
	C679.290344,770.432495 676.476624,770.786072 673.662781,770.787354 
	C609.606995,770.815796 545.551208,770.809692 481.495392,770.787964 
	C479.007690,770.787109 476.520081,770.567017 474.032410,770.449097 
	C473.900482,770.222473 473.709137,770.070862 473.290680,769.913269 
z"/>
<path fill="#030308" opacity="1.000000" stroke="none" 
	d="
M780.774658,489.002258 
	C779.174500,489.276428 777.350159,489.079224 775.525818,489.078949 
	C676.486206,489.063416 577.446533,489.063660 478.406921,489.071533 
	C476.912048,489.071655 475.417206,489.187439 473.463531,489.372375 
	C475.120361,488.998596 477.235626,488.068787 479.351654,488.067139 
	C570.802185,487.995453 662.252808,487.989044 753.703369,488.033630 
	C762.652466,488.037994 771.601440,488.417450 780.774658,489.002258 
z"/>
<path fill="#05060C" opacity="1.000000" stroke="none" 
	d="
M477.062317,295.089630 
	C475.975708,295.084320 474.889099,295.078979 473.397827,295.145142 
	C474.671387,294.812103 476.349457,294.054535 478.027954,294.053558 
	C577.385071,293.996063 676.742249,293.998810 776.099426,294.021271 
	C777.565186,294.021576 779.030823,294.341400 780.753174,294.859314 
	C779.596863,295.128906 778.183838,295.051270 775.889526,295.000854 
	C738.514465,295.018524 702.020752,294.993073 665.527039,295.003082 
	C602.705444,295.020264 539.883911,295.059570 477.062317,295.089630 
z"/>
<path fill="#030308" opacity="1.000000" stroke="none" 
	d="
M779.779602,684.046387 
	C778.336914,684.334534 776.679688,684.148132 775.022461,684.147766 
	C675.658875,684.125305 576.295288,684.118042 476.931671,684.113342 
	C476.266815,684.113281 475.601990,684.169067 474.471252,684.266602 
	C475.656952,683.892334 477.308289,683.064514 478.960175,683.063477 
	C577.547119,683.001953 676.134033,683.005493 774.721008,683.035706 
	C776.335754,683.036194 777.950378,683.441956 779.779602,684.046387 
z"/>
<path fill="#5F6C7D" opacity="1.000000" stroke="none" 
	d="
M778.296143,515.166626 
	C730.204468,515.213684 682.450439,515.150696 634.696472,515.120911 
	C581.782593,515.087952 528.868713,515.085266 475.490967,515.018311 
	C476.423431,514.644287 477.819641,514.039001 479.216034,514.038574 
	C579.533508,514.007263 679.850952,514.024048 780.519470,514.279907 
	C780.617126,514.741760 780.338257,514.920776 780.033875,515.060059 
	C779.567200,515.063782 779.100586,515.067505 778.296143,515.166626 
z"/>
<path fill="#5F6C7D" opacity="1.000000" stroke="none" 
	d="
M475.518799,709.842224 
	C476.651550,709.526978 478.245300,709.033447 479.839233,709.032898 
	C578.019348,708.996887 676.199524,709.000061 774.379639,709.014648 
	C775.696899,709.014832 777.014160,709.208130 778.643127,709.574158 
	C735.959167,709.873840 692.963440,709.936035 649.967773,709.941284 
	C591.971802,709.948425 533.975891,709.911804 475.518799,709.842224 
z"/>
<path fill="#0E1018" opacity="1.000000" stroke="none" 
	d="
M474.222992,770.852905 
	C476.520081,770.567017 479.007690,770.787109 481.495392,770.787964 
	C545.551208,770.809692 609.606995,770.815796 673.662781,770.787354 
	C676.476624,770.786072 679.290344,770.432495 682.513184,770.270264 
	C681.566589,770.865784 680.211670,771.929688 678.855408,771.931335 
	C611.974365,772.012146 545.093323,772.005798 478.212250,771.970337 
	C476.945892,771.969666 475.679779,771.504883 474.222992,770.852905 
z"/>
<path fill="#05060C" opacity="1.000000" stroke="none" 
	d="
M477.966217,381.873718 
	C500.088776,381.934814 522.211304,382.047821 544.333862,382.046204 
	C590.580750,382.042816 636.827576,381.979004 683.541077,381.869934 
	C682.324890,382.199097 680.642395,382.945953 678.959229,382.947479 
	C612.072144,383.007507 545.185059,383.004517 478.297913,382.973938 
	C476.684326,382.973206 475.070923,382.567719 473.641113,382.076660 
	C475.205292,381.826111 476.585754,381.849915 477.966217,381.873718 
z"/>
<path fill="#05060C" opacity="1.000000" stroke="none" 
	d="
M683.767029,549.940430 
	C668.965881,550.196594 653.928711,550.084717 638.105469,549.995361 
	C636.894409,550.041199 636.469360,550.064514 636.044312,550.087769 
	C610.777039,550.038025 585.509827,549.961365 560.242554,549.945557 
	C531.814148,549.927734 503.385712,549.964783 474.491272,550.003662 
	C474.850250,549.687073 475.675049,549.045532 476.500336,549.044983 
	C544.385986,548.998291 612.271606,548.998718 680.157288,549.024841 
	C681.281921,549.025269 682.406372,549.381897 683.767029,549.940430 
z"/>
<path fill="#030308" opacity="1.000000" stroke="none" 
	d="
M473.219055,575.978271 
	C474.655792,575.728271 476.307800,575.984314 477.959900,575.984741 
	C545.171692,576.003113 612.383484,575.999451 679.595276,575.988647 
	C680.756348,575.988403 681.917480,575.867432 683.537476,575.679565 
	C682.537415,576.036621 681.078857,576.935791 679.619324,576.937256 
	C612.175415,577.005676 544.731445,576.999329 477.287445,576.968750 
	C476.003021,576.968201 474.718750,576.575073 473.219055,575.978271 
z"/>
<path fill="#07090F" opacity="1.000000" stroke="none" 
	d="
M682.785767,744.134399 
	C681.662781,744.412964 680.341858,744.183655 679.020935,744.183411 
	C611.823914,744.169617 544.626892,744.174927 477.429901,744.184753 
	C476.599884,744.184875 475.769867,744.270020 474.477692,744.413879 
	C475.457550,744.008301 476.899078,743.065063 478.341644,743.063477 
	C545.153503,742.990845 611.965393,742.996277 678.777344,743.030823 
	C680.047668,743.031494 681.317688,743.489075 682.785767,744.134399 
z"/>
<path fill="#5A6676" opacity="1.000000" stroke="none" 
	d="
M680.495239,356.139648 
	C679.534241,356.458740 678.110718,356.966431 676.686951,356.967316 
	C610.994690,357.006989 545.302368,357.003845 479.610107,356.989838 
	C478.626831,356.989624 477.643585,356.790863 476.348267,356.421051 
	C537.218506,356.124023 598.400818,356.089355 659.583130,356.059509 
	C666.399597,356.056183 673.216125,356.080353 680.495239,356.139648 
z"/>
<path fill="#0E1018" opacity="1.000000" stroke="none" 
	d="
M381.731659,252.799957 
	C344.983337,253.374161 307.962616,253.620972 270.521637,253.831940 
	C271.264252,253.199081 272.425842,252.083344 273.590240,252.080399 
	C308.908508,251.990982 344.227020,252.008713 379.545502,252.033234 
	C380.183502,252.033676 380.821350,252.319763 381.731659,252.799957 
z"/>
<path fill="#434B5A" opacity="1.000000" stroke="none" 
	d="
M269.551147,827.934082 
	C270.327972,827.605042 271.563019,827.040710 272.798828,827.039185 
	C308.666199,826.993530 344.533600,827.002258 380.401031,827.020081 
	C381.047729,827.020386 381.694305,827.236450 382.630005,827.636841 
	C345.282593,827.934998 307.646149,827.948059 269.551147,827.934082 
z"/>
<path fill="#434B5A" opacity="1.000000" stroke="none" 
	d="
M380.475830,449.040588 
	C379.706085,449.372864 378.474823,449.957214 377.242737,449.958893 
	C342.021881,450.006439 306.800964,449.997406 271.580048,449.979187 
	C270.934021,449.978851 270.288086,449.755524 269.352600,449.347870 
	C306.046661,449.046661 343.030304,449.033844 380.475830,449.040588 
z"/>
<path fill="#434B5A" opacity="1.000000" stroke="none" 
	d="
M232.066223,680.550293 
	C232.393921,681.326294 232.957565,682.560730 232.959198,683.795898 
	C233.005585,718.987854 232.997253,754.179810 232.980789,789.371826 
	C232.980484,790.019592 232.773926,790.667175 232.384506,791.604248 
	C232.083664,754.932068 232.061935,717.970520 232.066223,680.550293 
z"/>
<path fill="#434B5A" opacity="1.000000" stroke="none" 
	d="
M232.055634,291.539856 
	C232.385284,292.313202 232.957611,293.546173 232.959274,294.779907 
	C233.006241,329.316193 232.997299,363.852509 232.979935,398.388855 
	C232.979599,399.035980 232.766327,399.683014 232.370270,400.619629 
	C232.069534,364.606079 232.050949,328.302948 232.055634,291.539856 
z"/>
<path fill="#434B5A" opacity="1.000000" stroke="none" 
	d="
M232.061737,486.545135 
	C232.389145,487.320343 232.956238,488.554596 232.957901,489.789612 
	C233.004440,524.321106 232.995605,558.852600 232.978424,593.384155 
	C232.978104,594.031372 232.767090,594.678528 232.373322,595.615356 
	C232.074127,559.604797 232.056000,523.304688 232.061737,486.545135 
z"/>
<path fill="#434B5A" opacity="1.000000" stroke="none" 
	d="
M420.927277,789.443481 
	C420.601227,788.665405 420.042267,787.429749 420.040558,786.193298 
	C419.993469,752.496033 420.000854,718.798645 420.018188,685.101318 
	C420.018616,684.288696 420.236145,683.476257 420.635742,682.373901 
	C420.930725,717.717896 420.942383,753.351746 420.927277,789.443481 
z"/>
<path fill="#434B5A" opacity="1.000000" stroke="none" 
	d="
M420.951080,396.471191 
	C420.624084,395.700684 420.043793,394.469116 420.041962,393.236694 
	C419.993835,360.686646 420.003448,328.136536 420.021667,295.586426 
	C420.022034,294.940338 420.243103,294.294342 420.648010,293.358704 
	C420.945679,327.382629 420.956482,361.696167 420.951080,396.471191 
z"/>
<path fill="#434B5A" opacity="1.000000" stroke="none" 
	d="
M420.955994,591.476685 
	C420.628052,590.707642 420.044128,589.476990 420.042267,588.245361 
	C419.993896,556.026978 420.003815,523.808533 420.022095,491.590088 
	C420.022461,490.943756 420.241821,490.297516 420.645233,489.361725 
	C420.944733,523.052979 420.957977,557.033752 420.955994,591.476685 
z"/>
<path fill="#5A6676" opacity="1.000000" stroke="none" 
	d="
M477.885651,381.502136 
	C476.585754,381.849915 475.205292,381.826111 473.416656,381.709717 
	C472.423004,381.233612 471.837524,380.850098 471.096802,380.246582 
	C473.229370,380.394562 475.517212,380.762543 477.885651,381.502136 
z"/>
<path fill="#566071" opacity="1.000000" stroke="none" 
	d="
M473.169312,320.435608 
	C475.380249,320.247192 477.905945,320.312927 480.682739,320.643280 
	C478.450562,320.835205 475.967285,320.762482 473.169312,320.435608 
z"/>
<path fill="#0E1018" opacity="1.000000" stroke="none" 
	d="
M780.226807,515.307922 
	C780.338257,514.920776 780.617126,514.741760 780.994934,514.306519 
	C781.119324,514.089966 781.064758,514.036316 781.373230,514.067505 
	C782.110107,513.986389 782.538452,513.874207 782.966797,513.761963 
	C782.966797,513.761963 782.927856,513.930908 782.940552,514.017151 
	C782.108765,514.587524 781.264221,515.071655 780.226807,515.307922 
z"/>
<path fill="#0E1018" opacity="1.000000" stroke="none" 
	d="
M683.967896,355.877075 
	C683.373291,356.085052 682.583374,356.029968 681.403809,355.926819 
	C681.933655,355.790497 682.853210,355.702240 683.967896,355.877075 
z"/>
<path fill="#0E1018" opacity="1.000000" stroke="none" 
	d="
M779.230469,710.387817 
	C779.763000,710.080017 780.500916,709.995117 781.611084,709.915588 
	C781.134155,710.150818 780.284912,710.380737 779.230469,710.387817 
z"/>
<path fill="#5A6676" opacity="1.000000" stroke="none" 
	d="
M473.644043,550.821289 
	C473.206635,551.169739 472.431244,551.577087 471.295197,551.974243 
	C471.725037,551.602722 472.515533,551.241455 473.644043,550.821289 
z"/>
<path fill="#5A6676" opacity="1.000000" stroke="none" 
	d="
M473.635010,356.741638 
	C473.200989,357.095673 472.434052,357.538239 471.300690,357.970764 
	C471.723541,357.583862 472.512817,357.207001 473.635010,356.741638 
z"/>
<path fill="#0E1018" opacity="1.000000" stroke="none" 
	d="
M475.821167,355.653748 
	C475.542755,355.902130 475.102295,355.943726 474.329834,355.991760 
	C474.551575,355.814453 475.105316,355.630707 475.821167,355.653748 
z"/>
<path fill="#0E1018" opacity="1.000000" stroke="none" 
	d="
M463.685089,699.214783 
	C463.970306,699.487305 464.033630,699.913940 464.153320,700.659912 
	C463.960846,700.442444 463.712036,699.905701 463.685089,699.214783 
z"/>
<path fill="#0E1018" opacity="1.000000" stroke="none" 
	d="
M464.017487,693.122192 
	C464.209625,693.460693 464.129028,693.887146 463.987793,694.632812 
	C463.866364,694.371460 463.805573,693.790833 464.017487,693.122192 
z"/>
<path fill="#0E1018" opacity="1.000000" stroke="none" 
	d="
M465.033203,703.288452 
	C465.339813,703.451294 465.674774,703.931213 466.102356,704.697021 
	C465.817200,704.523743 465.439362,704.064636 465.033203,703.288452 
z"/>
<path fill="#0E1018" opacity="1.000000" stroke="none" 
	d="
M471.163574,709.209717 
	C471.563385,709.132568 472.124939,709.318237 472.875427,709.734985 
	C472.484711,709.801575 471.905029,709.637024 471.163574,709.209717 
z"/>
<path fill="#566071" opacity="1.000000" stroke="none" 
	d="
M777.363586,320.940979 
	C777.588318,320.766449 778.128357,320.619629 778.804565,320.683838 
	C778.520142,320.919464 778.099548,320.944061 777.363586,320.940979 
z"/>
<path fill="#0E1018" opacity="1.000000" stroke="none" 
	d="
M782.263245,709.942139 
	C782.419495,709.614197 782.901794,709.274597 783.679138,708.841248 
	C783.512634,709.141907 783.050964,709.536194 782.263245,709.942139 
z"/>
<path fill="#0E1018" opacity="1.000000" stroke="none" 
	d="
M473.132141,710.164185 
	C473.453186,709.950195 473.894867,709.977661 474.664154,710.058777 
	C474.412079,710.210144 473.832458,710.307922 473.132141,710.164185 
z"/>
<path fill="#566071" opacity="1.000000" stroke="none" 
	d="
M781.341431,320.150757 
	C781.533386,319.932739 782.035339,319.652710 782.702698,319.565918 
	C782.462585,319.868988 782.057007,319.978882 781.341431,320.150757 
z"/>
<path fill="#5F6C7D" opacity="1.000000" stroke="none" 
	d="
M470.864502,513.268311 
	C471.235779,513.230591 471.785095,513.411987 472.192535,513.773926 
	C471.714630,513.798767 471.378601,513.643066 470.864502,513.268311 
z"/>
<path fill="#566071" opacity="1.000000" stroke="none" 
	d="
M470.285095,318.961365 
	C470.337494,318.852478 470.610931,318.837158 470.922668,319.015015 
	C470.960938,319.208221 470.506104,319.054932 470.285095,318.961365 
z"/>
<path fill="#5A6676" opacity="1.000000" stroke="none" 
	d="
M470.320923,379.886719 
	C470.365082,379.773895 470.622345,379.749603 470.933167,379.894836 
	C470.986786,380.064362 470.533997,379.975220 470.320923,379.886719 
z"/>
<path fill="#5A6676" opacity="1.000000" stroke="none" 
	d="
M470.743500,357.943848 
	C470.738037,358.088837 470.500183,358.259369 470.165985,358.276642 
	C470.069641,358.123383 470.511108,357.969330 470.743500,357.943848 
z"/>
<path fill="#566071" opacity="1.000000" stroke="none" 
	d="
M686.283813,573.964966 
	C686.268677,573.772400 686.522339,573.480469 687.073181,573.126953 
	C687.097778,573.332092 686.825195,573.598877 686.283813,573.964966 
z"/>
<path fill="#566071" opacity="1.000000" stroke="none" 
	d="
M469.823181,573.289673 
	C470.001495,573.221802 470.357056,573.379028 470.850403,573.798096 
	C470.658905,573.878296 470.329651,573.696594 469.823181,573.289673 
z"/>
<path fill="#5A6676" opacity="1.000000" stroke="none" 
	d="
M470.748688,551.954224 
	C470.744720,552.095581 470.510590,552.269653 470.178894,552.294434 
	C470.081329,552.145081 470.518524,551.986877 470.748688,551.954224 
z"/>
<path fill="#1C2029" opacity="1.000000" stroke="none" 
	d="
M384.157043,273.972839 
	C393.491852,274.788574 401.878143,283.914948 401.930908,294.258942 
	C402.103333,328.053131 402.129333,361.849640 401.915344,395.643372 
	C401.834991,408.333313 390.612213,418.851166 377.293640,418.914062 
	C343.499298,419.073669 309.703583,419.023651 275.908691,418.944092 
	C261.352020,418.909790 250.494858,406.840820 250.756088,393.690979 
	C251.397430,361.406952 250.959351,329.101593 250.965515,296.804810 
	C250.967911,284.252808 257.035858,276.394318 269.955200,273.326019 
	C271.932953,273.750031 273.242035,273.982666 274.551147,273.983063 
	C311.086456,273.994080 347.621735,273.981506 384.157043,273.972839 
M304.747650,344.668732 
	C304.433838,344.462097 304.120026,344.255432 303.204620,343.798584 
	C301.125214,341.578857 299.045807,339.359100 296.780304,336.631958 
	C296.495239,336.426941 296.210144,336.221924 295.333130,335.768433 
	C293.909637,334.506653 292.486145,333.244873 290.915771,331.688782 
	C290.915771,331.688782 290.911255,331.359863 290.626526,330.708588 
	C289.972778,330.570953 289.319061,330.433350 288.875061,330.238800 
	C288.875061,330.238800 288.850098,330.454712 288.560394,329.700714 
	C286.427002,329.956024 284.293579,330.211304 282.132538,330.227936 
	C282.132538,330.227936 282.366882,330.281036 281.815643,330.271729 
	C281.547791,330.494568 281.279907,330.717407 280.764740,331.179901 
	C280.764740,331.179901 280.430084,331.098511 279.839722,331.265442 
	C279.570892,331.552124 279.302063,331.838776 278.948517,332.545685 
	C278.948517,332.545685 278.778839,332.939362 278.188995,333.161407 
	C277.376862,334.119507 276.564697,335.077606 275.066132,336.193115 
	C272.536804,339.567047 271.926056,342.833801 275.956146,346.198669 
	C276.286163,346.530884 276.616180,346.863129 277.014191,347.620514 
	C277.137421,347.925385 277.363434,348.076172 277.998230,348.634308 
	C278.311859,348.919647 278.625488,349.204987 279.154114,350.083893 
	C282.445496,353.517487 285.736908,356.951080 288.917725,361.114014 
	C292.256439,364.156067 295.595184,367.198090 299.175903,370.849091 
	C301.638062,373.548004 303.869110,376.514038 306.612549,378.887878 
	C311.665833,383.260437 318.304291,385.058899 322.855103,380.547180 
	C327.990814,375.455566 333.029938,370.257538 337.927429,364.936737 
	C345.192108,357.044067 352.209503,348.923431 359.494537,341.050049 
	C365.177582,334.908051 371.107910,328.994843 377.649780,322.861389 
	C381.943695,317.926178 381.399078,311.540131 376.278778,306.785431 
	C371.122314,301.997131 364.397919,302.126831 360.792603,307.723877 
	C353.872620,315.110046 346.953461,322.497009 340.032318,329.882050 
	C336.939545,333.182159 333.774109,336.417328 330.766205,339.792938 
	C327.484009,343.476379 324.346069,347.288330 320.648895,350.838043 
	C320.431793,350.558014 320.214661,350.278015 320.294678,349.899536 
	C320.197052,349.933838 320.099426,349.968140 319.389008,350.289398 
	C318.626160,351.584900 317.863312,352.880371 317.075623,354.087524 
	C317.075623,354.087524 317.166077,354.102936 316.414612,354.007172 
	C314.801636,353.033142 313.136597,352.134460 311.589172,351.065521 
	C309.754120,349.797882 308.020294,348.383667 305.945068,346.756287 
	C305.945068,346.756287 305.918732,346.350800 305.727875,345.770020 
	C305.414368,345.528656 305.100830,345.287292 304.957672,345.045593 
	C304.957672,345.045593 304.938721,345.214874 304.747650,344.668732 
z"/>
<path fill="#0E1018" opacity="1.000000" stroke="none" 
	d="
M383.833374,273.687988 
	C347.621735,273.981506 311.086456,273.994080 274.551147,273.983063 
	C273.242035,273.982666 271.932953,273.750031 270.334656,273.332886 
	C306.724792,273.017151 343.404205,272.990265 380.083588,272.989471 
	C381.225647,272.989441 382.367676,273.259186 383.833374,273.687988 
z"/>
<path fill="#1C1F29" opacity="1.000000" stroke="none" 
	d="
M250.968674,737.000000 
	C250.967834,719.676208 250.942749,702.852417 250.973755,686.028687 
	C250.997101,673.358826 260.837341,663.117371 273.642670,663.060303 
	C308.788635,662.903687 343.936005,662.928223 379.082245,663.048828 
	C391.837738,663.092651 401.981476,673.636597 401.994904,686.480347 
	C402.029205,719.294983 402.036469,752.109741 401.991486,784.924316 
	C401.972168,798.998108 391.809967,809.008545 377.683533,809.012573 
	C343.369720,809.022522 309.055939,809.030090 274.742126,809.010986 
	C261.112793,809.003479 251.016281,798.993774 250.987045,785.472656 
	C250.952499,769.481812 250.972290,753.490906 250.968674,737.000000 
M302.753632,732.640808 
	C302.444641,732.441772 302.135620,732.242798 301.222076,731.782837 
	C297.609985,728.493713 293.997894,725.204529 289.775696,721.307129 
	C286.983368,721.518738 284.191010,721.730347 281.154999,721.835754 
	C281.154999,721.835754 280.985046,722.040161 280.394470,722.115417 
	C280.111023,722.383362 279.827576,722.651245 278.882263,723.068909 
	C274.461273,727.879333 273.657928,732.521118 275.912323,738.101013 
	C276.334198,738.365845 276.756042,738.630676 277.062622,738.931824 
	C277.062622,738.931824 277.054474,738.811279 277.240845,739.340637 
	C277.540527,739.548706 277.840210,739.756775 278.029449,739.970825 
	C278.029449,739.970825 278.036377,739.860413 278.237091,740.375122 
	C278.539246,740.570374 278.841400,740.765564 279.031006,740.968689 
	C279.031006,740.968689 279.036987,740.856018 279.234772,741.372803 
	C279.536499,741.570312 279.838226,741.767822 280.754303,742.210571 
	C288.503479,750.472412 296.252686,758.734253 304.246826,767.637939 
	C308.419891,773.351440 313.790497,774.733215 320.923645,772.028076 
	C322.293274,770.730286 323.662903,769.432495 325.512848,767.894958 
	C325.710327,767.603943 325.907837,767.312866 326.724060,766.749573 
	C328.685608,764.157654 330.418762,761.346985 332.652283,759.015625 
	C338.891388,752.503113 345.448853,746.294678 351.659851,739.756470 
	C355.299927,735.924683 358.377472,731.562500 361.960449,727.671448 
	C366.854370,722.356689 371.988647,717.263245 377.458923,711.798157 
	C377.673676,711.527649 377.888458,711.257141 378.812408,710.868164 
	C381.104034,707.009949 381.889343,703.321106 377.812988,700.164062 
	C377.812988,700.164062 377.772797,700.363892 377.702271,699.783936 
	C377.425171,699.533447 377.148041,699.282959 376.346771,698.840820 
	C375.885254,698.277222 375.423737,697.713623 374.655121,696.576355 
	C374.258087,696.405029 373.861053,696.233643 372.623291,696.078491 
	C366.430267,695.379333 361.587433,697.016724 357.215881,702.096680 
	C350.449951,709.958984 342.558380,716.840088 335.461761,724.434082 
	C328.674835,731.696655 322.293365,739.338135 315.453430,747.132446 
	C312.030762,743.192017 308.991882,739.693420 305.738861,735.666687 
	C305.430511,735.460083 305.122192,735.253479 304.959290,735.042053 
	C304.959290,735.042053 304.945984,735.186951 304.756409,734.652954 
	C304.448639,734.450317 304.140839,734.247742 303.962830,734.037048 
	C303.962830,734.037048 303.954468,734.166748 303.757751,733.639954 
	C303.449829,733.441772 303.141907,733.243591 302.964539,733.035156 
	C302.964539,733.035156 302.959106,733.166016 302.753632,732.640808 
z"/>
<path fill="#1C2029" opacity="1.000000" stroke="none" 
	d="
M382.001434,467.119629 
	C386.516632,469.754944 391.436432,471.893372 395.441681,475.154907 
	C400.138580,478.979553 401.978790,484.657928 401.983704,490.740204 
	C402.010468,523.896545 402.035645,557.052917 401.977600,590.209167 
	C401.955109,603.055847 390.957977,613.965820 378.028687,613.985413 
	C343.539520,614.037720 309.050079,614.045410 274.560944,613.980469 
	C261.924316,613.956665 250.997070,602.976318 250.983765,590.426392 
	C250.949493,558.103088 251.250168,525.776245 250.836166,493.458282 
	C250.665009,480.097076 257.383972,470.521790 270.226196,467.353668 
	C307.958191,467.085388 344.979797,467.102509 382.001434,467.119629 
M298.212128,565.796204 
	C298.212128,565.796204 298.250977,565.619690 298.331360,566.230469 
	C298.677979,566.408203 299.024567,566.585876 299.194458,566.811279 
	C299.194458,566.811279 299.231476,566.632019 299.326935,567.238953 
	C299.674622,567.413574 300.022308,567.588257 300.195679,567.811340 
	C300.195679,567.811340 300.232178,567.634155 300.323761,568.239319 
	C300.666534,568.422424 301.009277,568.605591 301.173340,568.830566 
	C301.173340,568.830566 301.207245,568.650146 301.320526,569.250610 
	C301.667511,569.424316 302.014496,569.598083 302.185944,569.816101 
	C302.185944,569.816101 302.223358,569.638977 302.323883,570.243225 
	C302.670227,570.418640 303.016571,570.593994 303.188782,570.814697 
	C303.188782,570.814697 303.226074,570.638672 303.324188,571.243225 
	C303.670441,571.418701 304.016724,571.594116 304.190247,571.816223 
	C304.190247,571.816223 304.226227,571.640930 304.320496,572.243652 
	C304.661377,572.428589 305.002228,572.613525 305.171265,572.841919 
	C305.171265,572.841919 305.200562,572.667053 305.298950,573.254822 
	C305.619049,573.461670 305.939178,573.668579 306.135712,573.889404 
	C306.135712,573.889404 306.176208,573.771851 306.065399,574.567566 
	C307.122406,575.316711 308.179413,576.065857 309.105652,576.848938 
	C309.105652,576.848938 309.129089,576.715881 309.293640,577.438416 
	C311.202240,578.566223 312.999084,579.997437 315.045471,580.751282 
	C318.182007,581.906677 321.986176,579.437988 323.348114,575.367920 
	C323.797333,574.527100 324.080902,573.523621 324.721771,572.870972 
	C330.336304,567.153137 336.078979,561.560181 341.654694,555.805298 
	C346.535980,550.767273 351.228668,545.546997 356.044556,540.444885 
	C363.136078,532.931824 370.263062,525.452271 378.019714,517.782532 
	C382.223358,511.789886 380.888916,505.491150 374.470093,502.979309 
	C374.470093,502.979309 374.066254,502.839020 374.051575,502.948425 
	C374.051575,502.948425 374.161682,502.940308 373.922424,502.462189 
	C373.609985,502.335236 373.297546,502.208252 373.039886,501.908142 
	C373.039886,501.908142 373.048126,501.726654 372.835724,501.044220 
	C368.314484,497.925415 365.970459,498.125854 362.605103,502.206909 
	C362.378265,502.464844 362.151428,502.722778 361.325409,503.145172 
	C360.270844,504.111359 359.216309,505.077515 357.634888,506.245544 
	C357.444183,506.559509 357.253479,506.873444 357.053253,507.051514 
	C357.053253,507.051514 357.188782,507.065063 356.646423,507.254944 
	C356.458618,507.578033 356.270813,507.901154 356.051880,508.058105 
	C356.051880,508.058105 356.220764,508.050812 355.637939,508.324432 
	C355.454193,508.705597 355.270447,509.086761 354.843475,510.067963 
	C347.538574,517.957825 340.233673,525.847656 332.244781,533.927368 
	C328.582672,537.570557 324.920563,541.213745 321.088928,545.317627 
	C320.552979,545.906311 320.016998,546.494934 318.775665,547.241028 
	C316.404999,547.250000 314.034302,547.258972 311.805878,547.172424 
	C311.805878,547.172424 311.832825,547.341614 311.693481,546.741211 
	C311.347015,546.552795 311.000549,546.364441 310.854065,546.138550 
	C310.854065,546.138550 310.828522,546.340454 310.697388,545.740967 
	C310.356232,545.544678 310.015045,545.348389 309.872772,545.119507 
	C309.872772,545.119507 309.850800,545.319885 309.705109,544.730042 
	C309.369019,544.530212 309.032928,544.330444 308.890503,544.103271 
	C308.890503,544.103271 308.870758,544.297913 308.714294,543.718384 
	C308.384705,543.515625 308.055145,543.312866 307.907074,543.087769 
	C307.907074,543.087769 307.889404,543.269836 307.727753,542.703247 
	C307.407928,542.495911 307.088074,542.288513 306.931427,542.065613 
	C306.931427,542.065613 306.917267,542.228882 306.739594,541.678772 
	C306.425049,541.476196 306.110474,541.273682 305.940277,541.057983 
	C305.940277,541.057983 305.927307,541.202393 305.753723,540.661865 
	C305.446167,540.459351 305.138641,540.256836 304.955017,540.044434 
	C304.955017,540.044434 304.944916,540.168396 304.756958,539.639587 
	C304.448456,539.444824 304.139954,539.250000 303.954498,539.045227 
	C303.954498,539.045227 303.944305,539.168274 303.760559,538.640442 
	C303.455658,538.443604 303.150757,538.246704 302.958710,538.041077 
	C302.958710,538.041077 302.949158,538.153870 302.766510,537.631775 
	C302.465149,537.435730 302.163818,537.239685 301.964203,537.035828 
	C301.964203,537.035828 301.955963,537.137512 301.767914,536.621277 
	C301.466797,536.428650 301.165710,536.236023 300.966339,536.034668 
	C300.966339,536.034668 300.959839,536.136536 300.760376,535.618591 
	C300.453857,535.426880 300.147339,535.235168 299.282959,534.820435 
	C298.510010,533.921997 297.737091,533.023621 296.995331,531.356812 
	C295.956696,530.583069 294.918030,529.809326 293.355804,528.854858 
	C292.885376,528.304504 292.414978,527.754211 291.712433,526.664551 
	C291.362854,526.520386 291.013275,526.376160 290.865143,526.225098 
	C290.865143,526.225098 290.797394,526.414917 290.593597,525.661438 
	C287.672791,523.780151 284.766022,522.368347 281.569519,526.187561 
	C281.343658,526.440308 281.117798,526.693054 280.966278,526.969360 
	C280.966278,526.969360 280.973541,526.891724 280.457031,527.017883 
	C280.108887,527.063721 279.760712,527.109497 278.724915,527.106628 
	C278.148926,527.404236 277.572937,527.701843 276.999573,528.549438 
	C277.019348,528.731689 277.039124,528.913940 277.077423,529.010925 
	C277.077423,529.010925 277.158508,529.043274 276.463715,529.267639 
	C271.876007,534.153687 271.861542,539.333862 276.238220,542.871155 
	C276.238220,542.871155 276.204742,542.661255 276.286407,543.250977 
	C276.592102,543.480225 276.897827,543.709473 277.052856,543.954041 
	C277.052856,543.954041 277.059387,543.802734 277.246521,544.340454 
	C277.554474,544.545410 277.862457,544.750366 278.773773,545.219421 
	C284.177795,550.830994 289.581818,556.442627 295.070404,562.732178 
	C295.857300,563.392212 296.644226,564.052307 297.262329,564.804443 
	C297.262329,564.804443 297.261719,564.612122 297.336182,565.225952 
	C297.685760,565.398315 298.035309,565.570740 298.212128,565.796204 
z"/>
<path fill="#434B5A" opacity="1.000000" stroke="none" 
	d="
M381.729248,466.792847 
	C344.979797,467.102509 307.958191,467.085388 270.468018,467.099854 
	C271.199524,466.754883 272.399017,466.051239 273.599640,466.049347 
	C308.913788,465.993988 344.228058,466.006104 379.542297,466.030762 
	C380.180634,466.031219 380.818787,466.314697 381.729248,466.792847 
z"/>
<path fill="#5F6C7D" opacity="1.000000" stroke="none" 
	d="
M477.357117,295.374634 
	C539.883911,295.059570 602.705444,295.020264 665.527039,295.003082 
	C702.020752,294.993073 738.514465,295.018524 775.469543,295.064240 
	C774.358032,295.399841 772.785278,295.960632 771.212280,295.961304 
	C674.673767,296.003387 578.135193,296.000885 481.596680,295.985840 
	C480.281738,295.985626 478.966827,295.773102 477.357117,295.374634 
z"/>
<path fill="#5F6C7D" opacity="1.000000" stroke="none" 
	d="
M782.786133,513.577881 
	C782.538452,513.874207 782.110107,513.986389 781.347656,514.096008 
	C781.544250,513.860168 782.074829,513.626953 782.786133,513.577881 
z"/>
<path fill="#5A6676" opacity="1.000000" stroke="none" 
	d="
M636.180054,550.303589 
	C636.469360,550.064514 636.894409,550.041199 637.637085,550.054077 
	C637.408447,550.233337 636.862122,550.376404 636.180054,550.303589 
z"/>
<path fill="#D1D3D1" opacity="1.000000" stroke="none" 
	d="
M289.028290,360.384674 
	C285.736908,356.951080 282.445496,353.517487 278.937317,349.469849 
	C278.377777,348.594818 278.035004,348.333801 277.692230,348.072815 
	C277.363434,348.076172 277.137421,347.925385 277.010010,347.003357 
	C276.355042,343.929382 275.704315,341.472504 275.004028,338.700989 
	C275.220459,337.602783 275.486511,336.819244 275.752533,336.035706 
	C276.564697,335.077606 277.376862,334.119507 278.915497,333.084900 
	C283.448883,332.666656 287.255768,332.324860 291.062653,331.983093 
	C292.486145,333.244873 293.909637,334.506653 295.725220,336.142639 
	C296.400360,336.724335 296.683380,336.931854 296.966400,337.139374 
	C299.045807,339.359100 301.125214,341.578857 303.627594,344.178833 
	C304.346619,344.777679 304.642670,344.996277 304.938721,345.214874 
	C304.938721,345.214874 304.957672,345.045593 304.980835,345.325745 
	C305.308929,345.854156 305.613831,346.102478 305.918732,346.350800 
	C305.918732,346.350800 305.945068,346.756287 306.119019,347.235992 
	C308.250702,350.049561 310.175568,352.411987 312.175629,354.708984 
	C314.088867,356.906342 315.765747,356.475372 317.166077,354.102936 
	C317.166077,354.102936 317.075623,354.087524 317.419678,354.065796 
	C318.890869,353.044128 320.018036,352.044189 321.145233,351.044250 
	C324.346069,347.288330 327.484009,343.476379 330.766205,339.792938 
	C333.774109,336.417328 336.939545,333.182159 340.032318,329.882050 
	C346.953461,322.497009 353.872620,315.110046 361.335480,307.379456 
	C366.264984,306.448547 370.443268,304.009888 374.854340,308.184387 
	C379.834686,312.897614 378.201202,317.790009 376.928345,322.979950 
	C371.107910,328.994843 365.177582,334.908051 359.494537,341.050049 
	C352.209503,348.923431 345.192108,357.044067 337.927429,364.936737 
	C333.029938,370.257538 327.990814,375.455566 322.855103,380.547180 
	C318.304291,385.058899 311.665833,383.260437 306.612549,378.887878 
	C303.869110,376.514038 301.638062,373.548004 299.074402,370.183167 
	C295.658051,366.473053 292.343170,363.428864 289.028290,360.384674 
z"/>
<path fill="#07090F" opacity="1.000000" stroke="none" 
	d="
M377.289062,322.920654 
	C378.201202,317.790009 379.834686,312.897614 374.854340,308.184387 
	C370.443268,304.009888 366.264984,306.448547 361.449890,307.057373 
	C364.397919,302.126831 371.122314,301.997131 376.278778,306.785431 
	C381.399078,311.540131 381.943695,317.926178 377.289062,322.920654 
z"/>
<path fill="#05060C" opacity="1.000000" stroke="none" 
	d="
M316.790344,354.055054 
	C315.765747,356.475372 314.088867,356.906342 312.175629,354.708984 
	C310.175568,352.411987 308.250702,350.049561 306.267822,347.374329 
	C308.020294,348.383667 309.754120,349.797882 311.589172,351.065521 
	C313.136597,352.134460 314.801636,353.033142 316.790344,354.055054 
z"/>
<path fill="#F2F3F2" opacity="1.000000" stroke="none" 
	d="
M288.973022,360.749329 
	C292.343170,363.428864 295.658051,366.473053 298.953430,369.878693 
	C295.595184,367.198090 292.256439,364.156067 288.973022,360.749329 
z"/>
<path fill="#F2F3F2" opacity="1.000000" stroke="none" 
	d="
M290.989197,331.835938 
	C287.255768,332.324860 283.448883,332.666656 279.210419,332.973877 
	C278.778839,332.939362 278.948517,332.545685 279.276062,332.240143 
	C279.879120,331.655884 280.154602,331.377197 280.430084,331.098511 
	C280.430084,331.098511 280.764740,331.179901 281.161560,331.064270 
	C281.827911,330.726135 282.097412,330.503601 282.366882,330.281067 
	C282.366882,330.281036 282.132538,330.227936 282.558838,330.240448 
	C284.940155,330.320221 286.895111,330.387482 288.850098,330.454712 
	C288.850098,330.454712 288.875061,330.238800 288.978943,330.510986 
	C289.692291,330.975403 290.301788,331.167633 290.911255,331.359863 
	C290.911255,331.359863 290.915771,331.688782 290.989197,331.835938 
z"/>
<path fill="#030308" opacity="1.000000" stroke="none" 
	d="
M275.409332,336.114410 
	C275.486511,336.819244 275.220459,337.602783 274.882019,339.122223 
	C275.075134,341.859009 275.340729,343.859894 275.606323,345.860779 
	C271.926056,342.833801 272.536804,339.567047 275.409332,336.114410 
z"/>
<path fill="#F2F3F2" opacity="1.000000" stroke="none" 
	d="
M275.781250,346.029724 
	C275.340729,343.859894 275.075134,341.859009 274.931580,339.436890 
	C275.704315,341.472504 276.355042,343.929382 276.976013,346.790802 
	C276.616180,346.863129 276.286163,346.530884 275.781250,346.029724 
z"/>
<path fill="#05060C" opacity="1.000000" stroke="none" 
	d="
M320.897064,350.941162 
	C320.018036,352.044189 318.890869,353.044128 317.432068,354.109955 
	C317.863312,352.880371 318.626160,351.584900 319.694519,350.144714 
	C320.000000,350.000000 319.997559,349.997986 319.997559,349.997986 
	C320.214661,350.278015 320.431793,350.558014 320.897064,350.941162 
z"/>
<path fill="#030308" opacity="1.000000" stroke="none" 
	d="
M288.705261,330.077698 
	C286.895111,330.387482 284.940155,330.320221 282.572693,330.359802 
	C284.293579,330.211304 286.427002,329.956024 288.705261,330.077698 
z"/>
<path fill="#030308" opacity="1.000000" stroke="none" 
	d="
M290.768890,331.034241 
	C290.301788,331.167633 289.692291,330.975403 288.874084,330.539429 
	C289.319061,330.433350 289.972778,330.570953 290.768890,331.034241 
z"/>
<path fill="#05060C" opacity="1.000000" stroke="none" 
	d="
M320.000885,350.001221 
	C320.099426,349.968140 320.197052,349.933838 320.146118,349.948761 
	C319.997559,349.997986 320.000000,350.000000 320.000885,350.001221 
z"/>
<path fill="#030308" opacity="1.000000" stroke="none" 
	d="
M282.091278,330.276398 
	C282.097412,330.503601 281.827911,330.726135 281.285217,330.944458 
	C281.279907,330.717407 281.547791,330.494568 282.091278,330.276398 
z"/>
<path fill="#030308" opacity="1.000000" stroke="none" 
	d="
M305.823303,346.060425 
	C305.613831,346.102478 305.308929,345.854156 304.895660,345.325897 
	C305.100830,345.287292 305.414368,345.528656 305.823303,346.060425 
z"/>
<path fill="#F2F3F2" opacity="1.000000" stroke="none" 
	d="
M277.845215,348.353577 
	C278.035004,348.333801 278.377777,348.594818 278.829834,349.173065 
	C278.625488,349.204987 278.311859,348.919647 277.845215,348.353577 
z"/>
<path fill="#030308" opacity="1.000000" stroke="none" 
	d="
M296.873352,336.885681 
	C296.683380,336.931854 296.400360,336.724335 296.021179,336.266846 
	C296.210144,336.221924 296.495239,336.426941 296.873352,336.885681 
z"/>
<path fill="#030308" opacity="1.000000" stroke="none" 
	d="
M280.134888,331.181976 
	C280.154602,331.377197 279.879120,331.655884 279.318420,332.030029 
	C279.302063,331.838776 279.570892,331.552124 280.134888,331.181976 
z"/>
<path fill="#030308" opacity="1.000000" stroke="none" 
	d="
M304.843201,344.941803 
	C304.642670,344.996277 304.346619,344.777679 303.928406,344.303894 
	C304.120026,344.255432 304.433838,344.462097 304.843201,344.941803 
z"/>
<path fill="#D1D4D1" opacity="1.000000" stroke="none" 
	d="
M276.333649,737.795044 
	C273.657928,732.521118 274.461273,727.879333 279.506531,722.932617 
	C280.415527,722.544312 280.700287,722.292236 280.985046,722.040161 
	C280.985046,722.040161 281.154999,721.835754 281.781219,721.916687 
	C285.066895,721.970154 287.726349,721.942749 290.385803,721.915344 
	C293.997894,725.204529 297.609985,728.493713 301.642456,732.164551 
	C302.361603,732.752808 302.660370,732.959412 302.959106,733.166016 
	C302.959106,733.166016 302.964539,733.035156 303.007202,733.296753 
	C303.351379,733.761108 303.652924,733.963928 303.954468,734.166748 
	C303.954468,734.166748 303.962830,734.037048 304.005432,734.299438 
	C304.347321,734.770264 304.646637,734.978638 304.945984,735.186951 
	C304.945984,735.186951 304.959290,735.042053 304.996033,735.305664 
	C305.339539,735.777832 305.646240,735.986328 305.952972,736.194824 
	C308.991882,739.693420 312.030762,743.192017 315.453430,747.132446 
	C322.293365,739.338135 328.674835,731.696655 335.461761,724.434082 
	C342.558380,716.840088 350.449951,709.958984 357.215881,702.096680 
	C361.587433,697.016724 366.430267,695.379333 373.234253,696.324707 
	C374.217560,696.763977 374.589874,696.957031 374.962189,697.150024 
	C375.423737,697.713623 375.885254,698.277222 376.682617,699.160767 
	C377.018433,699.480652 377.012573,699.952332 377.031616,700.368713 
	C377.040405,704.548401 377.030151,708.311646 377.019867,712.074951 
	C371.988647,717.263245 366.854370,722.356689 361.960449,727.671448 
	C358.377472,731.562500 355.299927,735.924683 351.659851,739.756470 
	C345.448853,746.294678 338.891388,752.503113 332.652283,759.015625 
	C330.418762,761.346985 328.685608,764.157654 326.160645,766.986755 
	C325.408997,767.527527 325.220734,767.831116 325.032501,768.134766 
	C323.662903,769.432495 322.293274,770.730286 320.151428,772.015137 
	C314.233215,772.426819 309.721130,771.301147 306.356812,766.984253 
	C306.062164,766.606140 304.809540,766.974487 304.001862,766.996094 
	C296.252686,758.734253 288.503479,750.472412 280.334442,741.839600 
	C279.622040,741.264404 279.329529,741.060181 279.036987,740.856018 
	C279.036987,740.856018 279.031006,740.968689 278.979858,740.712708 
	C278.631287,740.257935 278.333832,740.059204 278.036377,739.860413 
	C278.036377,739.860413 278.029449,739.970825 277.980286,739.709961 
	C277.638885,739.236450 277.346680,739.023865 277.054474,738.811279 
	C277.054474,738.811279 277.062622,738.931824 277.037079,738.687439 
	C276.888824,738.119019 276.662872,737.903015 276.333649,737.795044 
z"/>
<path fill="#F2F3F2" opacity="1.000000" stroke="none" 
	d="
M304.124329,767.317017 
	C304.809540,766.974487 306.062164,766.606140 306.356812,766.984253 
	C309.721130,771.301147 314.233215,772.426819 319.829285,772.036255 
	C313.790497,774.733215 308.419891,773.351440 304.124329,767.317017 
z"/>
<path fill="#F2F3F2" opacity="1.000000" stroke="none" 
	d="
M377.239380,711.936523 
	C377.030151,708.311646 377.040405,704.548401 377.208740,700.495483 
	C377.366821,700.205872 377.772797,700.363892 377.772797,700.363892 
	C377.772797,700.363892 377.812988,700.164062 377.836334,700.565063 
	C377.940857,704.306335 378.022064,707.646484 378.103271,710.986694 
	C377.888458,711.257141 377.673676,711.527649 377.239380,711.936523 
z"/>
<path fill="#05060C" opacity="1.000000" stroke="none" 
	d="
M378.457825,710.927429 
	C378.022064,707.646484 377.940857,704.306335 377.736145,700.583862 
	C381.889343,703.321106 381.104034,707.009949 378.457825,710.927429 
z"/>
<path fill="#F2F3F2" opacity="1.000000" stroke="none" 
	d="
M290.080750,721.611206 
	C287.726349,721.942749 285.066895,721.970154 281.903076,721.969849 
	C284.191010,721.730347 286.983368,721.518738 290.080750,721.611206 
z"/>
<path fill="#030308" opacity="1.000000" stroke="none" 
	d="
M276.122986,737.947998 
	C276.662872,737.903015 276.888824,738.119019 277.094727,738.669312 
	C276.756042,738.630676 276.334198,738.365845 276.122986,737.947998 
z"/>
<path fill="#030308" opacity="1.000000" stroke="none" 
	d="
M279.135864,741.114380 
	C279.329529,741.060181 279.622040,741.264404 280.027252,741.716919 
	C279.838226,741.767822 279.536499,741.570312 279.135864,741.114380 
z"/>
<path fill="#05060C" opacity="1.000000" stroke="none" 
	d="
M374.808655,696.863159 
	C374.589874,696.957031 374.217560,696.763977 373.654633,696.316650 
	C373.861053,696.233643 374.258087,696.405029 374.808655,696.863159 
z"/>
<path fill="#05060C" opacity="1.000000" stroke="none" 
	d="
M377.737549,700.073914 
	C377.772797,700.363892 377.366821,700.205872 377.189697,700.079102 
	C377.012573,699.952332 377.018433,699.480652 376.944672,699.256592 
	C377.148041,699.282959 377.425171,699.533447 377.737549,700.073914 
z"/>
<path fill="#030308" opacity="1.000000" stroke="none" 
	d="
M278.136719,740.117798 
	C278.333832,740.059204 278.631287,740.257935 279.036133,740.708740 
	C278.841400,740.765564 278.539246,740.570374 278.136719,740.117798 
z"/>
<path fill="#030308" opacity="1.000000" stroke="none" 
	d="
M277.147644,739.075928 
	C277.346680,739.023865 277.638885,739.236450 278.035522,739.706909 
	C277.840210,739.756775 277.540527,739.548706 277.147644,739.075928 
z"/>
<path fill="#030308" opacity="1.000000" stroke="none" 
	d="
M305.845917,735.930786 
	C305.646240,735.986328 305.339539,735.777832 304.923340,735.308105 
	C305.122192,735.253479 305.430511,735.460083 305.845917,735.930786 
z"/>
<path fill="#030308" opacity="1.000000" stroke="none" 
	d="
M304.851196,734.919922 
	C304.646637,734.978638 304.347321,734.770264 303.940552,734.303467 
	C304.140839,734.247742 304.448639,734.450317 304.851196,734.919922 
z"/>
<path fill="#030308" opacity="1.000000" stroke="none" 
	d="
M303.856110,733.903320 
	C303.652924,733.963928 303.351379,733.761108 302.941925,733.301880 
	C303.141907,733.243591 303.449829,733.441772 303.856110,733.903320 
z"/>
<path fill="#030308" opacity="1.000000" stroke="none" 
	d="
M302.856384,732.903442 
	C302.660370,732.959412 302.361603,732.752808 301.944733,732.295044 
	C302.135620,732.242798 302.444641,732.441772 302.856384,732.903442 
z"/>
<path fill="#F2F3F2" opacity="1.000000" stroke="none" 
	d="
M280.689758,722.077759 
	C280.700287,722.292236 280.415527,722.544312 279.837433,722.857788 
	C279.827576,722.651245 280.111023,722.383362 280.689758,722.077759 
z"/>
<path fill="#F2F3F2" opacity="1.000000" stroke="none" 
	d="
M325.272644,768.014832 
	C325.220734,767.831116 325.408997,767.527527 325.851288,767.122864 
	C325.907837,767.312866 325.710327,767.603943 325.272644,768.014832 
z"/>
<path fill="#D1D4D1" opacity="1.000000" stroke="none" 
	d="
M319.481049,547.083618 
	C320.016998,546.494934 320.552979,545.906311 321.572571,545.117920 
	C325.680420,541.191345 329.304596,537.464417 332.928802,533.737488 
	C340.233673,525.847656 347.538574,517.957825 355.224426,509.593811 
	C355.810516,508.763397 356.015625,508.407104 356.220764,508.050812 
	C356.220764,508.050812 356.051880,508.058105 356.325409,508.029480 
	C356.795563,507.688904 356.992157,507.376984 357.188782,507.065063 
	C357.188782,507.065063 357.053253,507.051514 357.311340,507.006622 
	C357.766846,506.655731 357.964294,506.349701 358.161743,506.043701 
	C359.216309,505.077515 360.270844,504.111359 362.026886,503.067078 
	C365.143188,502.358032 367.557983,501.727142 370.291595,501.029175 
	C371.422943,501.216949 372.235535,501.471802 373.048126,501.726685 
	C373.048126,501.726654 373.039886,501.908142 373.130493,502.225220 
	C373.534607,502.674957 373.848145,502.807648 374.161682,502.940308 
	C374.161682,502.940308 374.051575,502.948425 374.108734,503.140350 
	C374.410309,503.545929 374.654694,503.759613 375.049927,504.298401 
	C380.291779,508.356659 378.120087,513.273865 377.374939,517.958496 
	C370.263062,525.452271 363.136078,532.931824 356.044556,540.444885 
	C351.228668,545.546997 346.535980,550.767273 341.654694,555.805298 
	C336.078979,561.560181 330.336304,567.153137 324.721771,572.870972 
	C324.080902,573.523621 323.797333,574.527100 322.763184,575.692200 
	C317.861877,576.872131 313.634155,579.381226 309.129089,576.715881 
	C309.129089,576.715881 309.105652,576.848938 309.017090,576.560181 
	C308.011078,575.438171 307.093658,574.605042 306.176208,573.771851 
	C306.176208,573.771851 306.135712,573.889404 306.093689,573.621338 
	C305.767975,573.124573 305.484253,572.895813 305.200562,572.667053 
	C305.200562,572.667053 305.171265,572.841919 305.145752,572.562378 
	C304.822205,572.068848 304.524200,571.854919 304.226227,571.640930 
	C304.226227,571.640930 304.190247,571.816223 304.160522,571.538330 
	C303.829254,571.053223 303.527679,570.845947 303.226074,570.638672 
	C303.226074,570.638672 303.188782,570.814697 303.159454,570.537231 
	C302.827881,570.052856 302.525604,569.845947 302.223328,569.638977 
	C302.223358,569.638977 302.185944,569.816101 302.156067,569.538635 
	C301.819885,569.057495 301.513550,568.853821 301.207245,568.650146 
	C301.207245,568.650146 301.173340,568.830566 301.150513,568.552124 
	C300.829224,568.060547 300.530701,567.847351 300.232178,567.634155 
	C300.232178,567.634155 300.195679,567.811340 300.166504,567.532471 
	C299.835358,567.046387 299.533417,566.839233 299.231445,566.632019 
	C299.231476,566.632019 299.194458,566.811279 299.168884,566.532593 
	C298.845886,566.042480 298.548431,565.831055 298.250977,565.619690 
	C298.250977,565.619690 298.212128,565.796204 298.182495,565.517395 
	C297.855835,565.029785 297.558777,564.820923 297.261719,564.612122 
	C297.261719,564.612122 297.262329,564.804443 297.268585,564.557373 
	C297.038300,564.108704 296.927582,563.852661 296.818909,563.213928 
	C296.328217,562.620117 295.961304,562.354614 295.440918,562.103271 
	C295.287476,562.117432 294.985809,562.054199 294.985809,562.054199 
	C289.581818,556.442627 284.177795,550.830994 278.355408,544.834229 
	C277.644470,544.233643 277.351929,544.018188 277.059387,543.802734 
	C277.059387,543.802734 277.052856,543.954041 277.030457,543.675964 
	C276.740295,543.152344 276.472534,542.906799 276.204742,542.661255 
	C276.204742,542.661255 276.238220,542.871155 276.208801,542.430969 
	C273.818420,537.471741 275.169159,533.233337 277.158508,529.043274 
	C277.158508,529.043274 277.077423,529.010925 277.320496,528.968872 
	C277.747620,528.632141 277.931641,528.337402 278.329254,528.016052 
	C278.542816,527.989441 278.973267,527.993225 279.282288,527.944336 
	C280.052063,527.560913 280.512817,527.226318 280.973572,526.891724 
	C280.973541,526.891724 280.966278,526.969360 281.354279,526.981323 
	C283.823822,526.676636 285.905365,526.359924 288.343506,525.995728 
	C289.399170,526.103760 290.098297,526.259338 290.797394,526.414917 
	C290.797394,526.414917 290.865143,526.225098 290.883972,526.488220 
	C291.250092,526.902222 291.597321,527.053040 291.944580,527.203857 
	C292.414978,527.754211 292.885376,528.304504 293.757874,529.229370 
	C295.094666,530.444336 296.029419,531.284790 296.964142,532.125183 
	C297.737091,533.023621 298.510010,533.921997 299.677124,535.178955 
	C300.367462,535.737183 300.663666,535.936890 300.959839,536.136536 
	C300.959839,536.136536 300.966339,536.034668 301.021057,536.288574 
	C301.369141,536.740784 301.662537,536.939148 301.955963,537.137512 
	C301.955963,537.137512 301.964203,537.035828 302.018921,537.290649 
	C302.365479,537.748291 302.657318,537.951050 302.949158,538.153870 
	C302.949158,538.153870 302.958710,538.041077 303.009583,538.298340 
	C303.355103,538.759888 303.649689,538.964050 303.944305,539.168274 
	C303.944305,539.168274 303.954498,539.045227 304.001038,539.304260 
	C304.346710,539.765015 304.645813,539.966675 304.944916,540.168396 
	C304.944916,540.168396 304.955017,540.044434 304.999786,540.306274 
	C305.338806,540.779541 305.633057,540.990967 305.927307,541.202393 
	C305.927307,541.202393 305.940277,541.057983 305.977112,541.325806 
	C306.315063,541.805420 306.616150,542.017151 306.917267,542.228882 
	C306.917267,542.228882 306.931427,542.065613 306.955566,542.340820 
	C307.282928,542.833984 307.586182,543.051941 307.889404,543.269836 
	C307.889404,543.269836 307.907074,543.087769 307.924652,543.368652 
	C308.251740,543.865601 308.561249,544.081787 308.870758,544.297913 
	C308.870758,544.297913 308.890503,544.103271 308.901978,544.388245 
	C309.225891,544.888794 309.538330,545.104370 309.850769,545.319885 
	C309.850800,545.319885 309.872772,545.119507 309.881805,545.407104 
	C310.203400,545.909973 310.515961,546.125244 310.828522,546.340454 
	C310.828522,546.340454 310.854065,546.138550 310.865662,546.427734 
	C311.195770,546.925110 311.514313,547.133362 311.832825,547.341614 
	C311.832825,547.341614 311.805878,547.172424 311.886932,547.509399 
	C313.034790,549.423889 314.101562,551.001282 315.794006,553.503906 
	C317.687347,550.206970 318.584198,548.645325 319.481049,547.083618 
z"/>
<path fill="#0E1018" opacity="1.000000" stroke="none" 
	d="
M309.211365,577.077148 
	C313.634155,579.381226 317.861877,576.872131 322.584778,575.993408 
	C321.986176,579.437988 318.182007,581.906677 315.045471,580.751282 
	C312.999084,579.997437 311.202240,578.566223 309.211365,577.077148 
z"/>
<path fill="#07090F" opacity="1.000000" stroke="none" 
	d="
M377.697327,517.870483 
	C378.120087,513.273865 380.291779,508.356659 375.127869,504.062500 
	C375.054932,503.501404 374.894470,503.031097 374.894470,503.031097 
	C380.888916,505.491150 382.223358,511.789886 377.697327,517.870483 
z"/>
<path fill="#F2F3F2" opacity="1.000000" stroke="none" 
	d="
M332.586792,533.832397 
	C329.304596,537.464417 325.680420,541.191345 321.657349,544.887573 
	C324.920563,541.213745 328.582672,537.570557 332.586792,533.832397 
z"/>
<path fill="#05060C" opacity="1.000000" stroke="none" 
	d="
M276.811096,529.155457 
	C275.169159,533.233337 273.818420,537.471741 276.302734,542.381226 
	C271.861542,539.333862 271.876007,534.153687 276.811096,529.155457 
z"/>
<path fill="#07090F" opacity="1.000000" stroke="none" 
	d="
M319.128357,547.162354 
	C318.584198,548.645325 317.687347,550.206970 315.794006,553.503906 
	C314.101562,551.001282 313.034790,549.423889 311.815796,547.557190 
	C314.034302,547.258972 316.404999,547.250000 319.128357,547.162354 
z"/>
<path fill="#07090F" opacity="1.000000" stroke="none" 
	d="
M372.941925,501.385437 
	C372.235535,501.471802 371.422943,501.216949 369.894470,500.957184 
	C367.122925,501.262939 365.067261,501.573608 363.011597,501.884277 
	C365.970459,498.125854 368.314484,497.925415 372.941925,501.385437 
z"/>
<path fill="#07090F" opacity="1.000000" stroke="none" 
	d="
M290.695496,526.038208 
	C290.098297,526.259338 289.399170,526.103760 287.932098,525.846436 
	C285.445221,525.802429 283.726318,525.860168 282.007416,525.917847 
	C284.766022,522.368347 287.672791,523.780151 290.695496,526.038208 
z"/>
<path fill="#F2F3F2" opacity="1.000000" stroke="none" 
	d="
M362.808350,502.045593 
	C365.067261,501.573608 367.122925,501.262939 369.575684,501.024261 
	C367.557983,501.727142 365.143188,502.358032 362.326477,502.984833 
	C362.151428,502.722778 362.378265,502.464844 362.808350,502.045593 
z"/>
<path fill="#F2F3F2" opacity="1.000000" stroke="none" 
	d="
M281.788452,526.052734 
	C283.726318,525.860168 285.445221,525.802429 287.575500,525.893921 
	C285.905365,526.359924 283.823822,526.676636 281.317108,526.969604 
	C281.117798,526.693054 281.343658,526.440308 281.788452,526.052734 
z"/>
<path fill="#0E1018" opacity="1.000000" stroke="none" 
	d="
M306.120789,574.169678 
	C307.093658,574.605042 308.011078,575.438171 309.082458,576.543213 
	C308.179413,576.065857 307.122406,575.316711 306.120789,574.169678 
z"/>
<path fill="#07090F" opacity="1.000000" stroke="none" 
	d="
M296.979736,531.740967 
	C296.029419,531.284790 295.094666,530.444336 294.019653,529.319763 
	C294.918030,529.809326 295.956696,530.583069 296.979736,531.740967 
z"/>
<path fill="#0E1018" opacity="1.000000" stroke="none" 
	d="
M296.942719,563.542297 
	C296.927582,563.852661 297.038300,564.108704 297.352997,564.511353 
	C296.644226,564.052307 295.857300,563.392212 295.028107,562.393188 
	C294.985809,562.054199 295.287476,562.117432 295.611633,562.391724 
	C296.271423,562.958069 296.607086,563.250183 296.942719,563.542297 
z"/>
<path fill="#07090F" opacity="1.000000" stroke="none" 
	d="
M278.973267,527.993225 
	C278.973267,527.993225 278.542816,527.989441 278.049500,527.997803 
	C277.369781,528.003906 277.183380,528.001709 276.996979,527.999451 
	C277.572937,527.701843 278.148926,527.404236 278.971558,527.347046 
	C279.218201,527.587463 278.973267,527.993225 278.973267,527.993225 
z"/>
<path fill="#F2F3F2" opacity="1.000000" stroke="none" 
	d="
M279.282288,527.944336 
	C278.973267,527.993225 279.218201,527.587463 279.315369,527.371399 
	C279.760712,527.109497 280.108887,527.063721 280.715302,526.954834 
	C280.512817,527.226318 280.052063,527.560913 279.282288,527.944336 
z"/>
<path fill="#F2F3F2" opacity="1.000000" stroke="none" 
	d="
M374.682281,503.005188 
	C374.894470,503.031097 375.054932,503.501404 374.977020,503.737335 
	C374.654694,503.759613 374.410309,503.545929 374.116089,503.085632 
	C374.066254,502.839020 374.470093,502.979309 374.682281,503.005188 
z"/>
<path fill="#F2F3F2" opacity="1.000000" stroke="none" 
	d="
M374.042053,502.701233 
	C373.848145,502.807648 373.534607,502.674957 373.103088,502.311798 
	C373.297546,502.208252 373.609985,502.335236 374.042053,502.701233 
z"/>
<path fill="#07090F" opacity="1.000000" stroke="none" 
	d="
M305.840515,540.932129 
	C305.633057,540.990967 305.338806,540.779541 304.937805,540.311279 
	C305.138641,540.256836 305.446167,540.459351 305.840515,540.932129 
z"/>
<path fill="#07090F" opacity="1.000000" stroke="none" 
	d="
M355.929352,508.187622 
	C356.015625,508.407104 355.810516,508.763397 355.346039,509.293793 
	C355.270447,509.086761 355.454193,508.705597 355.929352,508.187622 
z"/>
<path fill="#07090F" opacity="1.000000" stroke="none" 
	d="
M311.763153,547.041382 
	C311.514313,547.133362 311.195770,546.925110 310.765625,546.446472 
	C311.000549,546.364441 311.347015,546.552795 311.763153,547.041382 
z"/>
<path fill="#07090F" opacity="1.000000" stroke="none" 
	d="
M310.762939,546.040710 
	C310.515961,546.125244 310.203400,545.909973 309.782349,545.423401 
	C310.015045,545.348389 310.356232,545.544678 310.762939,546.040710 
z"/>
<path fill="#07090F" opacity="1.000000" stroke="none" 
	d="
M309.777954,545.024963 
	C309.538330,545.104370 309.225891,544.888794 308.805115,544.401917 
	C309.032928,544.330444 309.369019,544.530212 309.777954,545.024963 
z"/>
<path fill="#05060C" opacity="1.000000" stroke="none" 
	d="
M277.152954,544.071594 
	C277.351929,544.018188 277.644470,544.233643 278.053711,544.702148 
	C277.862457,544.750366 277.554474,544.545410 277.152954,544.071594 
z"/>
<path fill="#07090F" opacity="1.000000" stroke="none" 
	d="
M308.792542,544.008179 
	C308.561249,544.081787 308.251740,543.865601 307.833893,543.379761 
	C308.055145,543.312866 308.384705,543.515625 308.792542,544.008179 
z"/>
<path fill="#05060C" opacity="1.000000" stroke="none" 
	d="
M276.245575,542.956116 
	C276.472534,542.906799 276.740295,543.152344 277.105835,543.668335 
	C276.897827,543.709473 276.592102,543.480225 276.245575,542.956116 
z"/>
<path fill="#07090F" opacity="1.000000" stroke="none" 
	d="
M307.808594,542.986572 
	C307.586182,543.051941 307.282928,542.833984 306.873962,542.348633 
	C307.088074,542.288513 307.407928,542.495911 307.808594,542.986572 
z"/>
<path fill="#07090F" opacity="1.000000" stroke="none" 
	d="
M306.828430,541.953857 
	C306.616150,542.017151 306.315063,541.805420 305.904968,541.332397 
	C306.110474,541.273682 306.425049,541.476196 306.828430,541.953857 
z"/>
<path fill="#07090F" opacity="1.000000" stroke="none" 
	d="
M304.850952,539.903992 
	C304.645813,539.966675 304.346710,539.765015 303.939514,539.309265 
	C304.139954,539.250000 304.448456,539.444824 304.850952,539.903992 
z"/>
<path fill="#07090F" opacity="1.000000" stroke="none" 
	d="
M303.852417,538.904358 
	C303.649689,538.964050 303.355103,538.759888 302.953186,538.302734 
	C303.150757,538.246704 303.455658,538.443604 303.852417,538.904358 
z"/>
<path fill="#07090F" opacity="1.000000" stroke="none" 
	d="
M302.857849,537.892822 
	C302.657318,537.951050 302.365479,537.748291 301.968018,537.294556 
	C302.163818,537.239685 302.465149,537.435730 302.857849,537.892822 
z"/>
<path fill="#07090F" opacity="1.000000" stroke="none" 
	d="
M301.861938,536.879395 
	C301.662537,536.939148 301.369141,536.740784 300.970184,536.292847 
	C301.165710,536.236023 301.466797,536.428650 301.861938,536.879395 
z"/>
<path fill="#07090F" opacity="1.000000" stroke="none" 
	d="
M300.860107,535.877563 
	C300.663666,535.936890 300.367462,535.737183 299.956024,535.290527 
	C300.147339,535.235168 300.453857,535.426880 300.860107,535.877563 
z"/>
<path fill="#05060C" opacity="1.000000" stroke="none" 
	d="
M276.998291,528.274414 
	C277.183380,528.001709 277.369781,528.003906 277.835938,528.024414 
	C277.931641,528.337402 277.747620,528.632141 277.311279,529.011597 
	C277.039124,528.913940 277.019348,528.731689 276.998291,528.274414 
z"/>
<path fill="#07090F" opacity="1.000000" stroke="none" 
	d="
M291.828491,526.934204 
	C291.597321,527.053040 291.250092,526.902222 290.783264,526.491638 
	C291.013275,526.376160 291.362854,526.520386 291.828491,526.934204 
z"/>
<path fill="#0E1018" opacity="1.000000" stroke="none" 
	d="
M302.273621,569.941101 
	C302.525604,569.845947 302.827881,570.052856 303.246521,570.514526 
	C303.016571,570.593994 302.670227,570.418640 302.273621,569.941101 
z"/>
<path fill="#07090F" opacity="1.000000" stroke="none" 
	d="
M357.898315,506.144623 
	C357.964294,506.349701 357.766846,506.655731 357.316101,507.074585 
	C357.253479,506.873444 357.444183,506.559509 357.898315,506.144623 
z"/>
<path fill="#07090F" opacity="1.000000" stroke="none" 
	d="
M356.917603,507.160004 
	C356.992157,507.376984 356.795563,507.688904 356.340973,508.112549 
	C356.270813,507.901154 356.458618,507.578033 356.917603,507.160004 
z"/>
<path fill="#0E1018" opacity="1.000000" stroke="none" 
	d="
M305.249756,572.960938 
	C305.484253,572.895813 305.767975,573.124573 306.155487,573.614380 
	C305.939178,573.668579 305.619049,573.461670 305.249756,572.960938 
z"/>
<path fill="#0E1018" opacity="1.000000" stroke="none" 
	d="
M304.273376,571.942261 
	C304.524200,571.854919 304.822205,572.068848 305.231659,572.540649 
	C305.002228,572.613525 304.661377,572.428589 304.273376,571.942261 
z"/>
<path fill="#0E1018" opacity="1.000000" stroke="none" 
	d="
M303.275146,570.940918 
	C303.527679,570.845947 303.829254,571.053223 304.246887,571.515015 
	C304.016724,571.594116 303.670441,571.418701 303.275146,570.940918 
z"/>
<path fill="#0E1018" opacity="1.000000" stroke="none" 
	d="
M301.263885,568.950378 
	C301.513550,568.853821 301.819885,569.057495 302.243835,569.516479 
	C302.014496,569.598083 301.667511,569.424316 301.263885,568.950378 
z"/>
<path fill="#0E1018" opacity="1.000000" stroke="none" 
	d="
M300.277954,567.936768 
	C300.530701,567.847351 300.829224,568.060547 301.239868,568.531250 
	C301.009277,568.605591 300.666534,568.422424 300.277954,567.936768 
z"/>
<path fill="#0E1018" opacity="1.000000" stroke="none" 
	d="
M299.279175,566.935486 
	C299.533417,566.839233 299.835358,567.046387 300.253632,567.508240 
	C300.022308,567.588257 299.674622,567.413574 299.279175,566.935486 
z"/>
<path fill="#0E1018" opacity="1.000000" stroke="none" 
	d="
M298.291168,565.925049 
	C298.548431,565.831055 298.845886,566.042480 299.257263,566.508728 
	C299.024567,566.585876 298.677979,566.408203 298.291168,565.925049 
z"/>
<path fill="#0E1018" opacity="1.000000" stroke="none" 
	d="
M297.298950,564.919067 
	C297.558777,564.820923 297.855835,565.029785 298.268890,565.490845 
	C298.035309,565.570740 297.685760,565.398315 297.298950,564.919067 
z"/>
<path fill="#F2F3F2" opacity="1.000000" stroke="none" 
	d="
M296.818909,563.213928 
	C296.607086,563.250183 296.271423,562.958069 295.765076,562.377563 
	C295.961304,562.354614 296.328217,562.620117 296.818909,563.213928 
z"/>
</svg>